<svg xmlns="http://www.w3.org/2000/svg" xmlns:xlink="http://www.w3.org/1999/xlink" width="2380" zoomAndPan="magnify" viewBox="0 0 1784.88 1784.99993" height="2380" preserveAspectRatio="xMidYMid meet" version="1.2"><defs><clipPath id="764eafa083"><path d="M 0 4.75 L 1780.070312 4.75 L 1780.070312 1784.820312 L 0 1784.820312 Z M 0 4.75 "/></clipPath><clipPath id="a1781d7adb"><path d="M 890.035156 4.75 C 398.480469 4.75 0 403.230469 0 894.785156 C 0 1386.335938 398.480469 1784.820312 890.035156 1784.820312 C 1381.585938 1784.820312 1780.070312 1386.335938 1780.070312 894.785156 C 1780.070312 403.230469 1381.585938 4.75 890.035156 4.75 Z M 890.035156 4.75 "/></clipPath><clipPath id="301b445232"><path d="M 0 4.75 L 1780.0625 4.75 L 1780.0625 1784.8125 L 0 1784.8125 Z M 0 4.75 "/></clipPath><clipPath id="144fcd11d1"><path d="M 890.03125 4.75 C 398.480469 4.75 0 403.230469 0 894.78125 C 0 1386.332031 398.480469 1784.8125 890.03125 1784.8125 C 1381.582031 1784.8125 1780.0625 1386.332031 1780.0625 894.78125 C 1780.0625 403.230469 1381.582031 4.75 890.03125 4.75 Z M 890.03125 4.75 "/></clipPath><clipPath id="ea120d9a35"><path d="M 429.738281 612.46875 L 861.667969 612.46875 L 861.667969 1027.191406 L 429.738281 1027.191406 Z M 429.738281 612.46875 "/></clipPath><clipPath id="738b1aef00"><path d="M 923.097656 612.46875 L 1355.300781 612.46875 L 1355.300781 1027.191406 L 923.097656 1027.191406 Z M 923.097656 612.46875 "/></clipPath><clipPath id="e4965ff5cc"><path d="M 433 1062 L 1352 1062 L 1352 1606.679688 L 433 1606.679688 Z M 433 1062 "/></clipPath><clipPath id="a030c4eec9"><path d="M 890.035156 603.910156 L 1504 603.910156 L 1504 832 L 890.035156 832 Z M 890.035156 603.910156 "/></clipPath><clipPath id="4935d781e7"><path d="M 278.164062 603.910156 L 892.113281 603.910156 L 892.113281 832 L 278.164062 832 Z M 278.164062 603.910156 "/></clipPath></defs><g id="6b8e65760c"><g clip-rule="nonzero" clip-path="url(#764eafa083)"><g clip-rule="nonzero" clip-path="url(#a1781d7adb)"><path style=" stroke:none;fill-rule:nonzero;fill:#ffffff;fill-opacity:1;" d="M 0 4.75 L 1780.070312 4.75 L 1780.070312 1784.820312 L 0 1784.820312 Z M 0 4.75 "/></g></g><g clip-rule="nonzero" clip-path="url(#301b445232)"><g clip-rule="nonzero" clip-path="url(#144fcd11d1)"><path style="fill:none;stroke-width:40;stroke-linecap:butt;stroke-linejoin:miter;stroke:#000000;stroke-opacity:1;stroke-miterlimit:4;" d="M 1186.788167 0.000156204 C 531.343034 0.000156204 0.000000000000227374 531.343191 0.000000000000227374 1186.788323 C 0.000000000000227374 1842.233456 531.343034 2373.57649 1186.788167 2373.57649 C 1842.233299 2373.57649 2373.576334 1842.233456 2373.576334 1186.788323 C 2373.576334 531.343191 1842.233299 0.000156204 1186.788167 0.000156204 Z M 1186.788167 0.000156204 " transform="matrix(0.74995,0,0,0.74995,-0.000000000000170519,4.749883)"/></g></g><g clip-rule="nonzero" clip-path="url(#ea120d9a35)"><path style=" stroke:none;fill-rule:evenodd;fill:#000000;fill-opacity:1;" d="M 668.585938 612.707031 C 754.679688 611.4375 843.570312 687.800781 858.761719 781.300781 C 891.296875 981.6875 642.460938 1076.476562 508.640625 1001.761719 C 375.230469 927.269531 425.433594 667.019531 551.875 621.34375 C 585.761719 609.105469 628.253906 613.285156 668.585938 612.707031 M 720.433594 634.3125 C 580.976562 612.472656 482.164062 657.039062 456.78125 776.96875 C 595.527344 791.460938 710.777344 769.859375 832.824219 785.621094 C 818.601562 711.929688 768.738281 673.914062 720.433594 634.3125 M 452.480469 802.90625 L 452.480469 867.753906 C 492.222656 867.679688 522.480469 879.789062 551.875 872.078125 C 544.554688 855.664062 539.453125 826.152344 547.546875 807.230469 C 518.859375 800.308594 483.105469 795.910156 452.480469 802.90625 M 569.171875 807.230469 C 558.167969 836.125 569.890625 862.589844 582.128906 880.710938 C 641.316406 875.074219 658.964844 884.183594 711.804688 872.078125 C 711.332031 848.046875 715.230469 819.636719 703.175781 807.230469 C 656.375 807.453125 612.976562 797.675781 569.171875 807.230469 M 733.40625 876.402344 C 761.050781 884.433594 789.6875 868.789062 824.171875 880.710938 C 829.585938 858.730469 838.257812 840.054688 837.128906 811.550781 C 807.03125 819.167969 782.546875 794.425781 729.101562 802.90625 C 735.492188 828.9375 739.199219 847.261719 733.40625 876.402344 M 802.570312 906.664062 C 681.964844 893.203125 608.890625 908.636719 461.113281 889.367188 C 472.246094 1059.445312 772.53125 1017.167969 802.570312 906.664062 "/></g><path style=" stroke:none;fill-rule:evenodd;fill:#ffffff;fill-opacity:1;" d="M 832.824219 785.621094 C 710.777344 769.859375 595.527344 791.457031 456.78125 776.96875 C 482.164062 657.035156 580.976562 612.472656 720.433594 634.3125 C 768.738281 673.910156 818.601562 711.925781 832.824219 785.621094 "/><path style=" stroke:none;fill-rule:evenodd;fill:#ffffff;fill-opacity:1;" d="M 547.546875 807.230469 C 539.453125 826.148438 544.554688 855.664062 551.878906 872.078125 C 522.480469 879.789062 492.222656 867.679688 452.480469 867.753906 L 452.480469 802.90625 C 483.105469 795.910156 518.859375 800.308594 547.546875 807.230469 "/><path style=" stroke:none;fill-rule:evenodd;fill:#000000;fill-opacity:1;" d="M 703.175781 807.230469 C 715.234375 819.636719 711.332031 848.046875 711.804688 872.078125 C 658.964844 884.183594 641.316406 875.074219 582.132812 880.710938 C 569.890625 862.589844 558.171875 836.125 569.175781 807.230469 C 612.976562 797.675781 656.375 807.453125 703.175781 807.230469 "/><path style=" stroke:none;fill-rule:evenodd;fill:#ffffff;fill-opacity:1;" d="M 729.101562 802.90625 C 782.550781 794.425781 807.035156 819.167969 837.132812 811.546875 C 838.257812 840.054688 829.585938 858.730469 824.175781 880.710938 C 789.6875 868.789062 761.050781 884.433594 733.410156 876.398438 C 739.203125 847.261719 735.496094 828.9375 729.101562 802.90625 "/><path style=" stroke:none;fill-rule:evenodd;fill:#ffffff;fill-opacity:1;" d="M 461.113281 889.367188 C 608.890625 908.636719 681.96875 893.203125 802.570312 906.660156 C 772.535156 1017.167969 472.25 1059.445312 461.113281 889.367188 "/><g clip-rule="nonzero" clip-path="url(#738b1aef00)"><path style=" stroke:none;fill-rule:evenodd;fill:#000000;fill-opacity:1;" d="M 1162.21875 612.703125 C 1248.3125 611.4375 1337.207031 687.800781 1352.394531 781.300781 C 1384.933594 981.6875 1136.097656 1076.476562 1002.277344 1001.761719 C 868.867188 927.265625 919.0625 667.019531 1045.511719 621.34375 C 1079.398438 609.105469 1121.886719 613.285156 1162.21875 612.703125 M 1214.066406 634.3125 C 1074.613281 612.472656 975.796875 657.035156 950.414062 776.96875 C 1089.160156 791.457031 1204.414062 769.859375 1326.457031 785.621094 C 1312.234375 711.929688 1262.371094 673.910156 1214.066406 634.3125 M 946.113281 802.90625 L 946.113281 867.753906 C 985.855469 867.679688 1016.113281 879.789062 1045.511719 872.078125 C 1038.1875 855.664062 1033.089844 826.152344 1041.179688 807.230469 C 1012.492188 800.308594 976.738281 795.910156 946.113281 802.90625 M 1062.808594 807.230469 C 1051.804688 836.125 1063.53125 862.589844 1075.765625 880.710938 C 1134.953125 875.074219 1152.597656 884.183594 1205.441406 872.078125 C 1204.964844 848.046875 1208.867188 819.632812 1196.8125 807.230469 C 1150.003906 807.453125 1106.609375 797.671875 1062.808594 807.230469 M 1227.042969 876.402344 C 1254.683594 884.433594 1283.320312 868.789062 1317.808594 880.710938 C 1323.222656 858.730469 1331.890625 840.054688 1330.769531 811.546875 C 1300.667969 819.164062 1276.183594 794.425781 1222.734375 802.90625 C 1229.125 828.9375 1232.835938 847.257812 1227.042969 876.402344 M 1296.203125 906.664062 C 1175.601562 893.203125 1102.523438 908.636719 954.746094 889.367188 C 965.882812 1059.445312 1266.164062 1017.167969 1296.203125 906.664062 "/></g><path style=" stroke:none;fill-rule:evenodd;fill:#ffffff;fill-opacity:1;" d="M 1326.460938 785.621094 C 1204.410156 769.859375 1089.164062 791.457031 950.414062 776.96875 C 975.796875 657.035156 1074.613281 612.472656 1214.066406 634.3125 C 1262.367188 673.910156 1312.234375 711.929688 1326.460938 785.621094 "/><path style=" stroke:none;fill-rule:evenodd;fill:#ffffff;fill-opacity:1;" d="M 1041.179688 807.230469 C 1033.089844 826.152344 1038.1875 855.664062 1045.511719 872.078125 C 1016.113281 879.789062 985.855469 867.679688 946.113281 867.753906 L 946.113281 802.90625 C 976.738281 795.910156 1012.492188 800.308594 1041.179688 807.230469 "/><path style=" stroke:none;fill-rule:evenodd;fill:#000000;fill-opacity:1;" d="M 1196.8125 807.226562 C 1208.867188 819.632812 1204.96875 848.046875 1205.441406 872.078125 C 1152.597656 884.183594 1134.953125 875.074219 1075.765625 880.710938 C 1063.53125 862.589844 1051.804688 836.121094 1062.8125 807.226562 C 1106.617188 797.671875 1150.007812 807.453125 1196.8125 807.226562 "/><path style=" stroke:none;fill-rule:evenodd;fill:#ffffff;fill-opacity:1;" d="M 1222.738281 802.90625 C 1276.1875 794.425781 1300.671875 819.167969 1330.769531 811.546875 C 1331.890625 840.054688 1323.21875 858.730469 1317.808594 880.710938 C 1283.320312 868.789062 1254.683594 884.433594 1227.042969 876.402344 C 1232.839844 847.257812 1229.125 828.933594 1222.738281 802.90625 "/><path style=" stroke:none;fill-rule:evenodd;fill:#ffffff;fill-opacity:1;" d="M 954.742188 889.367188 C 1102.519531 908.636719 1175.597656 893.203125 1296.207031 906.664062 C 1266.164062 1017.167969 965.882812 1059.445312 954.742188 889.367188 "/><g clip-rule="nonzero" clip-path="url(#e4965ff5cc)"><path style=" stroke:none;fill-rule:nonzero;fill:#000000;fill-opacity:1;" d="M 1334.621094 1314.144531 C 1254.824219 1297.425781 1191.488281 1222.203125 1156.601562 1181.875 C 1098.863281 1115.007812 1053.285156 1062.4375 987.648438 1062.4375 C 979.375 1062.140625 971.121094 1062.414062 962.882812 1063.257812 C 954.648438 1064.105469 946.507812 1065.515625 938.464844 1067.484375 C 930.425781 1069.457031 922.554688 1071.972656 914.863281 1075.03125 C 907.167969 1078.089844 899.722656 1081.664062 892.519531 1085.753906 C 885.328125 1081.648438 877.890625 1078.058594 870.199219 1074.980469 C 862.511719 1071.90625 854.648438 1069.371094 846.609375 1067.382812 C 838.574219 1065.394531 830.4375 1063.96875 822.199219 1063.105469 C 813.964844 1062.242188 805.710938 1061.949219 797.433594 1062.226562 C 731.800781 1062.226562 686.21875 1114.925781 628.480469 1181.664062 C 587.789062 1228.679688 530.34375 1296.96875 450.546875 1314.144531 C 449.390625 1314.402344 448.257812 1314.75 447.15625 1315.195312 C 446.058594 1315.640625 445 1316.171875 443.984375 1316.789062 C 442.972656 1317.40625 442.015625 1318.105469 441.117188 1318.882812 C 440.21875 1319.65625 439.390625 1320.5 438.632812 1321.414062 C 437.871094 1322.328125 437.191406 1323.296875 436.59375 1324.320312 C 435.992188 1325.347656 435.480469 1326.414062 435.058594 1327.523438 C 434.632812 1328.632812 434.304688 1329.769531 434.066406 1330.929688 C 433.832031 1332.09375 433.691406 1333.269531 433.648438 1334.457031 C 433.605469 1335.644531 433.660156 1336.828125 433.8125 1338.003906 C 433.964844 1339.183594 434.210938 1340.339844 434.554688 1341.476562 C 434.898438 1342.613281 435.332031 1343.714844 435.855469 1344.78125 C 436.378906 1345.84375 436.988281 1346.859375 437.679688 1347.824219 C 438.371094 1348.789062 439.136719 1349.691406 439.980469 1350.53125 C 440.820312 1351.371094 441.722656 1352.132812 442.6875 1352.824219 C 443.65625 1353.511719 444.671875 1354.117188 445.738281 1354.640625 C 446.804688 1355.164062 447.90625 1355.59375 449.042969 1355.933594 C 663.324219 1415.445312 566.023438 1607.976562 892.519531 1607.976562 C 1219.019531 1607.976562 1127.691406 1410.679688 1336.082031 1355.933594 C 1337.210938 1355.589844 1338.308594 1355.152344 1339.367188 1354.625 C 1340.425781 1354.101562 1341.4375 1353.492188 1342.394531 1352.800781 C 1343.355469 1352.109375 1344.253906 1351.34375 1345.085938 1350.503906 C 1345.921875 1349.667969 1346.679688 1348.765625 1347.367188 1347.800781 C 1348.054688 1346.839844 1348.65625 1345.824219 1349.179688 1344.761719 C 1349.699219 1343.699219 1350.128906 1342.605469 1350.46875 1341.46875 C 1350.8125 1340.335938 1351.058594 1339.183594 1351.207031 1338.011719 C 1351.359375 1336.839844 1351.414062 1335.660156 1351.375 1334.476562 C 1351.332031 1333.296875 1351.195312 1332.125 1350.960938 1330.964844 C 1350.730469 1329.804688 1350.402344 1328.671875 1349.984375 1327.566406 C 1349.566406 1326.460938 1349.058594 1325.394531 1348.464844 1324.371094 C 1347.871094 1323.347656 1347.199219 1322.378906 1346.445312 1321.464844 C 1345.695312 1320.554688 1344.871094 1319.707031 1343.980469 1318.929688 C 1343.089844 1318.152344 1342.144531 1317.453125 1341.136719 1316.828125 C 1340.132812 1316.207031 1339.082031 1315.667969 1337.988281 1315.21875 C 1336.894531 1314.769531 1335.773438 1314.410156 1334.621094 1314.144531 Z M 892.519531 1564.890625 C 652.503906 1564.890625 674.730469 1453.015625 573.292969 1373.152344 C 673.558594 1384.3125 730.628906 1389.867188 807.878906 1355.433594 C 811.144531 1353.773438 814.453125 1352.214844 817.8125 1350.75 C 821.167969 1349.285156 824.5625 1347.921875 828 1346.65625 C 831.4375 1345.394531 834.910156 1344.230469 838.414062 1343.171875 C 841.917969 1342.109375 845.453125 1341.152344 849.015625 1340.300781 C 852.574219 1339.449219 856.160156 1338.703125 859.765625 1338.058594 C 863.371094 1337.417969 866.992188 1336.882812 870.625 1336.453125 C 874.261719 1336.023438 877.910156 1335.699219 881.566406 1335.484375 C 885.222656 1335.269531 888.878906 1335.164062 892.542969 1335.164062 C 896.203125 1335.164062 899.863281 1335.269531 903.519531 1335.484375 C 907.171875 1335.699219 910.820312 1336.023438 914.457031 1336.453125 C 918.09375 1336.882812 921.714844 1337.417969 925.320312 1338.058594 C 928.925781 1338.703125 932.507812 1339.449219 936.070312 1340.300781 C 939.628906 1341.152344 943.164062 1342.109375 946.667969 1343.171875 C 950.175781 1344.230469 953.644531 1345.394531 957.082031 1346.65625 C 960.519531 1347.921875 963.914062 1349.285156 967.273438 1350.75 C 970.628906 1352.214844 973.941406 1353.773438 977.207031 1355.433594 C 1051.65625 1388.867188 1103.710938 1385.144531 1211.832031 1373.109375 C 1110.605469 1452.679688 1133.082031 1564.890625 892.519531 1564.890625 Z M 994.835938 1316.148438 C 990.878906 1314.175781 986.867188 1312.320312 982.800781 1310.578125 C 978.738281 1308.835938 974.625 1307.214844 970.46875 1305.710938 C 966.308594 1304.207031 962.109375 1302.824219 957.871094 1301.5625 C 953.632812 1300.304688 949.359375 1299.167969 945.054688 1298.152344 C 940.753906 1297.140625 936.421875 1296.25 932.066406 1295.488281 C 927.710938 1294.722656 923.335938 1294.089844 918.945312 1293.578125 C 914.550781 1293.066406 910.148438 1292.683594 905.734375 1292.429688 C 901.320312 1292.171875 896.902344 1292.046875 892.480469 1292.046875 C 888.058594 1292.046875 883.640625 1292.171875 879.222656 1292.429688 C 874.808594 1292.683594 870.40625 1293.066406 866.015625 1293.578125 C 861.621094 1294.089844 857.246094 1294.722656 852.890625 1295.488281 C 848.535156 1296.25 844.207031 1297.140625 839.902344 1298.152344 C 835.597656 1299.167969 831.324219 1300.304688 827.085938 1301.5625 C 822.847656 1302.824219 818.648438 1304.207031 814.492188 1305.710938 C 810.332031 1307.214844 806.222656 1308.835938 802.15625 1310.578125 C 798.089844 1312.320312 794.078125 1314.175781 790.121094 1316.148438 C 719.097656 1348.035156 659.984375 1341.433594 534.269531 1324.96875 C 546.480469 1317.386719 558.320312 1309.269531 569.789062 1300.609375 C 581.257812 1291.949219 592.308594 1282.785156 602.941406 1273.117188 C 613.574219 1263.449219 623.742188 1253.316406 633.453125 1242.71875 C 643.160156 1232.121094 652.367188 1221.101562 661.070312 1209.664062 C 713.542969 1149.152344 751.476562 1105.1875 797.433594 1105.1875 C 800.953125 1104.910156 804.480469 1104.785156 808.011719 1104.816406 C 811.542969 1104.847656 815.066406 1105.035156 818.582031 1105.378906 C 822.09375 1105.71875 825.589844 1106.214844 829.058594 1106.867188 C 832.53125 1107.515625 835.96875 1108.320312 839.367188 1109.273438 C 842.769531 1110.226562 846.121094 1111.328125 849.421875 1112.578125 C 852.726562 1113.828125 855.96875 1115.21875 859.148438 1116.753906 C 862.328125 1118.289062 865.4375 1119.960938 868.46875 1121.769531 C 871.503906 1123.578125 874.449219 1125.519531 877.3125 1127.589844 C 877.8125 1128.070312 878.332031 1128.53125 878.875 1128.964844 C 879.417969 1129.398438 879.980469 1129.804688 880.5625 1130.1875 C 881.144531 1130.566406 881.742188 1130.917969 882.359375 1131.242188 C 882.972656 1131.566406 883.601562 1131.859375 884.246094 1132.125 C 884.886719 1132.386719 885.542969 1132.621094 886.207031 1132.820312 C 886.875 1133.023438 887.546875 1133.191406 888.226562 1133.328125 C 888.910156 1133.464844 889.59375 1133.570312 890.285156 1133.644531 C 890.976562 1133.714844 891.671875 1133.753906 892.367188 1133.757812 C 893.0625 1133.765625 893.753906 1133.738281 894.449219 1133.675781 C 895.140625 1133.617188 895.828125 1133.523438 896.511719 1133.398438 C 897.195312 1133.273438 897.871094 1133.113281 898.539062 1132.925781 C 899.207031 1132.734375 899.867188 1132.511719 900.511719 1132.257812 C 901.160156 1132.007812 901.792969 1131.722656 902.414062 1131.410156 C 903.035156 1131.097656 903.640625 1130.753906 904.226562 1130.382812 C 904.816406 1130.011719 905.382812 1129.613281 905.933594 1129.191406 C 906.484375 1128.765625 907.011719 1128.3125 907.519531 1127.839844 C 910.382812 1125.746094 913.332031 1123.785156 916.371094 1121.957031 C 919.410156 1120.125 922.523438 1118.433594 925.710938 1116.882812 C 928.898438 1115.328125 932.148438 1113.921875 935.460938 1112.65625 C 938.777344 1111.394531 942.140625 1110.28125 945.550781 1109.316406 C 948.964844 1108.351562 952.414062 1107.539062 955.898438 1106.882812 C 959.382812 1106.222656 962.886719 1105.722656 966.417969 1105.375 C 969.945312 1105.03125 973.484375 1104.839844 977.03125 1104.808594 C 980.574219 1104.777344 984.117188 1104.90625 987.648438 1105.1875 C 1033.605469 1105.1875 1071.542969 1149.027344 1124.015625 1209.664062 C 1132.746094 1221.046875 1141.972656 1232.011719 1151.6875 1242.566406 C 1161.402344 1253.121094 1171.566406 1263.21875 1182.1875 1272.859375 C 1192.808594 1282.5 1203.835938 1291.648438 1215.277344 1300.300781 C 1226.714844 1308.957031 1238.519531 1317.078125 1250.6875 1324.675781 C 1127.355469 1340.972656 1066.195312 1348.035156 994.835938 1316.023438 Z M 994.835938 1316.148438 "/></g><g style="fill:#000000;fill-opacity:1;"><g transform="translate(511.334465, 515.524019)"><path style="stroke:none" d="M 188.964844 -178.503906 C 196.59375 -190.273438 201.117188 -199.480469 202.53125 -206.128906 C 203.949219 -212.777344 202.640625 -217.515625 198.609375 -220.351562 C 194.578125 -223.183594 187.984375 -224.710938 178.832031 -224.925781 L 180.464844 -231.464844 C 184.605469 -231.246094 188.800781 -231.085938 193.050781 -230.976562 C 197.300781 -230.867188 201.550781 -230.757812 205.800781 -230.648438 C 210.050781 -230.539062 214.03125 -230.484375 217.734375 -230.484375 C 223.402344 -230.484375 228.085938 -230.59375 231.792969 -230.8125 C 235.496094 -231.03125 239.09375 -231.246094 242.582031 -231.464844 L 240.945312 -224.925781 C 237.894531 -224.273438 234.625 -222.964844 231.140625 -221.003906 C 227.652344 -219.042969 223.945312 -216.101562 220.023438 -212.175781 C 216.101562 -208.253906 212.066406 -203.023438 207.925781 -196.484375 L 79.117188 1.632812 C 78.246094 1.632812 77.425781 1.632812 76.664062 1.632812 C 75.902344 1.632812 75.085938 1.632812 74.210938 1.632812 L 48.386719 -204.003906 C 47.515625 -211.851562 45.226562 -217.246094 41.519531 -220.1875 C 37.816406 -223.128906 34.4375 -224.710938 31.386719 -224.925781 L 33.019531 -231.464844 C 37.378906 -231.246094 42.828125 -231.03125 49.367188 -230.8125 C 55.90625 -230.59375 62.226562 -230.484375 68.328125 -230.484375 C 76.828125 -230.484375 84.292969 -230.59375 90.722656 -230.8125 C 97.152344 -231.03125 102.765625 -231.246094 107.558594 -231.464844 L 105.925781 -224.925781 C 99.167969 -224.710938 93.664062 -224 89.414062 -222.800781 C 85.164062 -221.601562 82.277344 -219.097656 80.75 -215.28125 C 79.226562 -211.46875 78.898438 -205.53125 79.769531 -197.464844 L 98.734375 -36.941406 L 97.097656 -37.597656 Z M 188.964844 -178.503906 "/></g></g><g style="fill:#000000;fill-opacity:1;"><g transform="translate(717.953272, 515.524019)"><path style="stroke:none" d="M 61.789062 -227.542969 C 62.878906 -233.210938 65.765625 -238.113281 70.453125 -242.253906 C 75.140625 -246.394531 80.207031 -248.464844 85.65625 -248.464844 C 91.320312 -248.464844 95.734375 -246.394531 98.894531 -242.253906 C 102.054688 -238.113281 103.089844 -233.210938 102 -227.542969 C 100.910156 -221.875 98.023438 -216.972656 93.339844 -212.832031 C 88.652344 -208.691406 83.476562 -206.617188 77.808594 -206.617188 C 72.359375 -206.617188 68.054688 -208.691406 64.894531 -212.832031 C 61.734375 -216.972656 60.699219 -221.875 61.789062 -227.542969 Z M 51.65625 -140.253906 C 56.230469 -153.765625 54.707031 -160.523438 47.078125 -160.523438 C 42.066406 -160.523438 37.597656 -157.796875 33.671875 -152.347656 C 29.75 -146.898438 25.609375 -138.507812 21.25 -127.175781 L 16.671875 -115.078125 L 10.460938 -115.078125 L 18.960938 -138.945312 C 22.230469 -148.097656 26.15625 -155.074219 30.730469 -159.867188 C 35.308594 -164.664062 40.15625 -167.988281 45.28125 -169.839844 C 50.402344 -171.691406 55.140625 -172.617188 59.5 -172.617188 C 66.476562 -172.617188 71.597656 -171.203125 74.867188 -168.367188 C 78.136719 -165.535156 80.097656 -161.828125 80.75 -157.253906 C 81.40625 -152.675781 81.1875 -147.71875 80.097656 -142.378906 C 79.007812 -137.039062 77.589844 -131.863281 75.847656 -126.847656 L 40.867188 -27.789062 C 38.6875 -21.46875 37.976562 -16.511719 38.742188 -12.914062 C 39.503906 -9.316406 41.957031 -7.519531 46.097656 -7.519531 C 50.457031 -7.519531 54.597656 -9.917969 58.519531 -14.710938 C 62.445312 -19.507812 66.800781 -28.226562 71.597656 -40.867188 L 76.175781 -52.960938 L 82.386719 -52.960938 L 73.886719 -29.097656 C 70.835938 -20.597656 67.128906 -13.894531 62.769531 -8.992188 C 58.410156 -4.085938 53.726562 -0.597656 48.710938 1.472656 C 43.699219 3.542969 38.6875 4.578125 33.671875 4.578125 C 24.300781 4.578125 17.980469 2.398438 14.710938 -1.960938 C 11.441406 -6.320312 10.242188 -11.988281 11.117188 -18.960938 C 11.988281 -25.9375 13.839844 -33.347656 16.671875 -41.191406 Z M 51.65625 -140.253906 "/></g></g><g style="fill:#000000;fill-opacity:1;"><g transform="translate(825.185836, 515.524019)"><path style="stroke:none" d="M 108.867188 -162.15625 C 103.199219 -162.15625 96.824219 -158.179688 89.742188 -150.222656 C 82.660156 -142.269531 75.464844 -131.480469 68.164062 -117.859375 C 60.863281 -104.234375 53.996094 -88.925781 47.566406 -71.925781 C 41.136719 -54.925781 35.746094 -37.269531 31.386719 -18.960938 L 36.941406 -54.269531 C 46.316406 -82.820312 55.414062 -105.761719 64.242188 -123.089844 C 73.070312 -140.414062 81.894531 -153.003906 90.722656 -160.847656 C 99.550781 -168.695312 108.757812 -172.617188 118.347656 -172.617188 C 128.59375 -172.617188 136.820312 -168.804688 143.03125 -161.175781 C 149.242188 -153.546875 152.347656 -141.996094 152.347656 -126.523438 C 152.347656 -116.714844 150.988281 -105.925781 148.261719 -94.15625 C 145.539062 -82.386719 141.503906 -70.726562 136.164062 -59.175781 C 130.824219 -47.621094 124.289062 -36.996094 116.550781 -27.296875 C 108.8125 -17.601562 99.929688 -9.863281 89.90625 -4.085938 C 79.878906 1.6875 68.765625 4.578125 56.558594 4.578125 C 50.019531 4.578125 44.191406 2.617188 39.066406 -1.308594 C 33.945312 -5.230469 30.511719 -10.898438 28.769531 -18.308594 L 31.386719 -24.847656 C 34.4375 -16.78125 37.976562 -11.117188 42.011719 -7.847656 C 46.042969 -4.578125 50.78125 -2.941406 56.230469 -2.941406 C 63.640625 -2.941406 70.726562 -5.832031 77.480469 -11.605469 C 84.238281 -17.382812 90.449219 -25.066406 96.117188 -34.65625 C 101.785156 -44.246094 106.742188 -54.871094 110.992188 -66.53125 C 115.242188 -78.191406 118.511719 -89.851562 120.800781 -101.511719 C 123.089844 -113.171875 124.234375 -123.90625 124.234375 -133.714844 C 124.234375 -143.304688 122.871094 -150.441406 120.144531 -155.128906 C 117.421875 -159.8125 113.664062 -162.15625 108.867188 -162.15625 Z M 32.691406 -20.269531 C 27.460938 -16.128906 22.230469 -11.933594 17 -7.683594 C 11.769531 -3.433594 6.539062 0.871094 1.308594 5.230469 L -3.597656 2.941406 C -2.070312 -0.109375 -0.816406 -3.214844 0.164062 -6.375 C 1.144531 -9.535156 1.960938 -12.75 2.617188 -16.019531 L 59.828125 -218.0625 C 61.570312 -225.472656 61.246094 -230.921875 58.847656 -234.40625 C 56.449219 -237.894531 49.910156 -239.640625 39.230469 -239.640625 L 40.867188 -246.503906 C 52.855469 -246.722656 63.425781 -247.976562 72.578125 -250.265625 C 81.730469 -252.550781 90.339844 -255.765625 98.40625 -259.910156 Z M 32.691406 -20.269531 "/></g></g><g style="fill:#000000;fill-opacity:1;"><g transform="translate(989.957789, 515.524019)"><path style="stroke:none" d="M 27.460938 -74.210938 C 39.667969 -78.355469 50.726562 -82.441406 60.644531 -86.472656 C 70.5625 -90.503906 78.464844 -94.808594 84.347656 -99.386719 C 92.195312 -105.707031 98.40625 -113.335938 102.984375 -122.269531 C 107.558594 -131.207031 109.847656 -141.015625 109.847656 -151.695312 C 109.847656 -158.015625 109.414062 -162.046875 108.539062 -163.792969 C 107.667969 -165.535156 106.359375 -166.40625 104.617188 -166.40625 C 99.167969 -166.40625 93.285156 -164.007812 86.964844 -159.214844 C 80.640625 -154.417969 74.429688 -147.828125 68.328125 -139.433594 C 62.226562 -131.042969 56.613281 -121.507812 51.492188 -110.828125 C 46.371094 -100.148438 42.28125 -88.761719 39.230469 -76.664062 C 36.179688 -64.570312 34.65625 -52.527344 34.65625 -40.539062 C 34.65625 -29.421875 36.726562 -21.414062 40.867188 -16.511719 C 45.007812 -11.605469 50.457031 -9.152344 57.210938 -9.152344 C 65.058594 -9.152344 73.339844 -11.550781 82.058594 -16.347656 C 90.777344 -21.140625 99.277344 -29.640625 107.558594 -41.847656 L 112.789062 -39.230469 C 108.648438 -32.039062 103.199219 -25.066406 96.445312 -18.308594 C 89.6875 -11.550781 82.113281 -6.046875 73.722656 -1.796875 C 65.332031 2.453125 56.449219 4.578125 47.078125 4.578125 C 38.359375 4.578125 30.730469 2.832031 24.191406 -0.652344 C 17.652344 -4.140625 12.640625 -9.316406 9.152344 -16.183594 C 5.667969 -23.046875 3.921875 -31.496094 3.921875 -41.519531 C 3.921875 -50.890625 5.667969 -61.40625 9.152344 -73.070312 C 12.640625 -84.730469 17.601562 -96.390625 24.027344 -108.050781 C 30.457031 -119.710938 38.140625 -130.445312 47.078125 -140.253906 C 56.015625 -150.058594 65.929688 -157.90625 76.828125 -163.792969 C 87.726562 -169.675781 99.386719 -172.617188 111.808594 -172.617188 C 118.566406 -172.617188 124.289062 -170.820312 128.972656 -167.222656 C 133.660156 -163.628906 136.003906 -158.234375 136.003906 -151.042969 C 136.003906 -142.324219 133.441406 -134.203125 128.320312 -126.683594 C 123.199219 -119.164062 116.441406 -112.300781 108.050781 -106.089844 C 99.660156 -99.875 90.558594 -94.375 80.75 -89.578125 C 70.945312 -84.785156 61.355469 -80.640625 51.980469 -77.15625 C 42.609375 -73.667969 34.328125 -70.835938 27.136719 -68.65625 Z M 27.460938 -74.210938 "/></g></g><g style="fill:#000000;fill-opacity:1;"><g transform="translate(1130.210107, 515.524019)"><path style="stroke:none" d="M 101.675781 -250.101562 C 97.535156 -250.101562 93.066406 -249.554688 88.269531 -248.464844 C 83.476562 -247.375 79.171875 -245.632812 75.355469 -243.234375 C 71.542969 -240.835938 68.980469 -237.785156 67.675781 -234.082031 C 68.980469 -233.863281 70.289062 -233.046875 71.597656 -231.628906 C 72.90625 -230.210938 73.996094 -228.523438 74.867188 -226.5625 C 75.738281 -224.601562 76.066406 -222.3125 75.847656 -219.695312 C 75.628906 -215.335938 73.832031 -211.796875 70.453125 -209.070312 C 67.074219 -206.347656 63.097656 -204.984375 58.519531 -204.984375 C 54.160156 -204.984375 50.890625 -206.238281 48.710938 -208.746094 C 46.53125 -211.25 45.441406 -214.574219 45.441406 -218.714844 C 45.441406 -224.164062 47.1875 -229.175781 50.675781 -233.753906 C 54.160156 -238.332031 58.902344 -242.253906 64.894531 -245.523438 C 70.890625 -248.792969 77.535156 -251.300781 84.839844 -253.042969 C 92.140625 -254.785156 99.496094 -255.660156 106.90625 -255.660156 C 116.496094 -255.660156 124.886719 -254.1875 132.078125 -251.246094 C 139.273438 -248.300781 144.9375 -243.996094 149.078125 -238.332031 C 153.222656 -232.664062 155.292969 -225.582031 155.292969 -217.082031 C 155.292969 -210.324219 153.65625 -203.511719 150.386719 -196.648438 C 147.117188 -189.78125 141.558594 -182.261719 133.714844 -174.089844 C 125.867188 -165.917969 115.078125 -156.488281 101.347656 -145.808594 C 90.015625 -137.09375 80.425781 -129.84375 72.578125 -124.070312 C 64.730469 -118.292969 58.792969 -112.84375 54.761719 -107.722656 C 50.726562 -102.601562 48.710938 -96.554688 48.710938 -89.578125 C 48.710938 -83.476562 50.457031 -78.191406 53.941406 -73.722656 C 57.429688 -69.253906 63.425781 -67.019531 71.925781 -67.019531 C 78.027344 -67.019531 84.238281 -68.273438 90.558594 -70.78125 C 96.878906 -73.285156 101.128906 -76.828125 103.308594 -81.40625 C 101.347656 -81.625 99.386719 -82.875 97.425781 -85.164062 C 95.464844 -87.453125 94.589844 -90.015625 94.808594 -92.847656 C 94.808594 -96.117188 96.171875 -99.167969 98.894531 -102 C 101.621094 -104.835938 105.164062 -106.25 109.519531 -106.25 C 112.574219 -106.25 115.1875 -105.433594 117.367188 -103.800781 C 119.546875 -102.164062 120.636719 -99.167969 120.636719 -94.808594 C 120.636719 -89.578125 118.949219 -84.945312 115.570312 -80.914062 C 112.191406 -76.882812 107.722656 -73.394531 102.164062 -70.453125 C 96.609375 -67.511719 90.613281 -65.277344 84.183594 -63.75 C 77.753906 -62.226562 71.597656 -61.460938 65.710938 -61.460938 C 58.300781 -61.460938 51.765625 -62.660156 46.097656 -65.058594 C 40.429688 -67.457031 36.015625 -71 32.855469 -75.683594 C 29.695312 -80.371094 28.117188 -86.199219 28.117188 -93.175781 C 28.117188 -102.546875 30.894531 -110.992188 36.453125 -118.511719 C 42.011719 -126.03125 49.421875 -133.332031 58.683594 -140.414062 C 67.945312 -147.5 78.027344 -155.183594 88.925781 -163.464844 C 98.949219 -171.09375 107.070312 -177.792969 113.28125 -183.570312 C 119.492188 -189.347656 124.070312 -195.066406 127.011719 -200.734375 C 129.953125 -206.402344 131.425781 -212.613281 131.425781 -219.371094 C 131.425781 -228.304688 129.027344 -235.660156 124.234375 -241.4375 C 119.4375 -247.210938 111.917969 -250.101562 101.675781 -250.101562 Z M 34.980469 -12.097656 C 34.980469 -18.636719 37.488281 -24.464844 42.5 -29.585938 C 47.515625 -34.707031 53.070312 -37.269531 59.175781 -37.269531 C 64.1875 -37.269531 68.21875 -35.636719 71.269531 -32.367188 C 74.320312 -29.097656 75.847656 -25.066406 75.847656 -20.269531 C 75.847656 -15.910156 74.703125 -11.824219 72.414062 -8.007812 C 70.125 -4.195312 67.128906 -1.144531 63.425781 1.144531 C 59.71875 3.433594 55.6875 4.578125 51.328125 4.578125 C 46.53125 4.578125 42.609375 2.996094 39.558594 -0.164062 C 36.507812 -3.324219 34.980469 -7.300781 34.980469 -12.097656 Z M 34.980469 -12.097656 "/></g></g><g clip-rule="nonzero" clip-path="url(#a030c4eec9)"><path style=" stroke:none;fill-rule:nonzero;fill:#000000;fill-opacity:1;" d="M 890.335938 793.953125 C 890.335938 793.953125 902.082031 826.335938 939.34375 826.335938 C 976.609375 826.335938 986.734375 821.882812 992.402344 817.835938 C 998.074219 813.789062 1066.523438 766.019531 1137.808594 772.902344 C 1209.09375 779.785156 1319.664062 824.3125 1334.652344 829.980469 C 1349.636719 835.648438 1407.960938 818.238281 1437.527344 798.808594 C 1467.097656 779.378906 1495.851562 746.992188 1495.851562 746.992188 C 1495.851562 746.992188 1450.085938 782.210938 1416.0625 795.164062 C 1416.0625 795.164062 1484.105469 737.277344 1503.953125 688.703125 C 1503.953125 688.703125 1461.425781 746.992188 1409.175781 776.949219 L 1433.273438 747.707031 C 1433.273438 747.707031 1415.484375 768.15625 1384.796875 783.046875 C 1384.796875 783.046875 1418.597656 754.820312 1436.164062 723.707031 C 1453.730469 692.589844 1457.289062 680.589844 1457.289062 680.589844 C 1457.289062 680.589844 1432.382812 738.820312 1356.109375 776.15625 C 1356.109375 776.15625 1396.804688 739.929688 1411.703125 695.257812 C 1411.703125 695.257812 1358.109375 760.378906 1319.195312 780.378906 C 1319.195312 780.378906 1356.777344 725.039062 1368.785156 687.699219 C 1380.792969 650.363281 1381.683594 647.027344 1381.683594 647.027344 C 1381.683594 647.027344 1342.324219 733.039062 1286.953125 765.265625 C 1286.953125 765.265625 1309.1875 740.820312 1323.644531 695.035156 C 1323.644531 695.035156 1309.632812 732.816406 1270.273438 766.378906 C 1270.273438 766.378906 1282.726562 754.152344 1292.734375 733.707031 C 1292.734375 733.707031 1280.726562 752.375 1254.707031 766.378906 C 1254.707031 766.378906 1294.511719 727.484375 1307.855469 697.703125 C 1321.195312 667.917969 1323.199219 648.140625 1323.199219 648.140625 C 1323.199219 648.140625 1305.851562 698.144531 1271.609375 730.59375 L 1253.59375 748.597656 C 1253.59375 748.597656 1265.605469 735.261719 1274.5 697.925781 C 1274.5 697.925781 1252.613281 750.292969 1226.910156 767.710938 C 1226.910156 767.710938 1248.035156 748.152344 1269.382812 692.589844 C 1290.730469 637.027344 1289.175781 607.023438 1289.175781 607.023438 C 1289.175781 607.023438 1255.375 703.703125 1210.898438 734.816406 C 1210.898438 734.816406 1227.132812 710.59375 1234.027344 657.03125 C 1234.027344 657.03125 1219.351562 717.039062 1180.878906 751.042969 C 1180.878906 751.042969 1194.730469 729.484375 1197.144531 699.257812 C 1197.144531 699.257812 1177.097656 744.152344 1157.753906 759.933594 C 1157.753906 759.933594 1177.765625 733.039062 1184.882812 682.144531 C 1184.882812 682.144531 1175.097656 712.59375 1161.976562 728.816406 C 1161.976562 728.816406 1168.425781 701.703125 1171.09375 662.363281 C 1173.761719 623.023438 1169.984375 603.910156 1169.984375 603.910156 C 1169.984375 603.910156 1161.53125 675.03125 1150.414062 710.148438 C 1139.296875 745.265625 1136.851562 751.042969 1136.851562 751.042969 C 1136.851562 751.042969 1141.742188 716.816406 1139.296875 681.03125 C 1139.296875 681.03125 1126.398438 744.597656 1123.0625 754.597656 C 1123.0625 754.597656 1122.839844 695.921875 1125.285156 668.363281 C 1125.285156 668.363281 1112.609375 719.925781 1112.609375 739.261719 L 1108.386719 693.035156 C 1108.386719 693.035156 1105.496094 719.039062 1105.71875 729.261719 C 1105.71875 729.261719 1100.824219 679.921875 1098.601562 650.585938 C 1096.378906 621.246094 1095.710938 614.355469 1095.710938 614.355469 C 1095.710938 614.355469 1091.484375 651.25 1092.375 698.589844 C 1093.265625 745.929688 1086.371094 758.375 1086.371094 758.375 C 1086.371094 758.375 1080.589844 704.148438 1070.804688 678.367188 C 1070.804688 678.367188 1072.582031 740.820312 1073.917969 751.488281 L 1075.253906 762.15625 C 1075.253906 762.15625 1065.914062 749.929688 1058.574219 690.144531 C 1058.574219 690.144531 1054.570312 717.039062 1058.351562 732.59375 C 1058.351562 732.59375 1045.453125 692.8125 1046.121094 639.25 C 1046.121094 639.25 1036.78125 670.363281 1040.117188 719.484375 C 1043.453125 768.601562 1045.453125 771.265625 1045.453125 771.265625 C 1045.453125 771.265625 1035.003906 755.710938 1024.996094 725.484375 C 1014.988281 695.257812 1014.101562 688.144531 1014.101562 688.144531 C 1014.101562 688.144531 1015.210938 741.929688 1032.777344 775.710938 C 1032.777344 775.710938 1011.429688 756.820312 1002.089844 704.589844 C 1002.089844 704.589844 999.644531 722.59375 1003.648438 739.707031 C 1003.648438 739.707031 989.195312 728.59375 983.414062 677.921875 C 983.414062 677.921875 967.179688 730.152344 1005.203125 784.824219 C 1005.203125 784.824219 968.511719 768.15625 960.730469 711.257812 C 960.730469 711.257812 953.613281 758.15625 985.414062 791.714844 C 985.414062 791.714844 968.734375 790.160156 944.71875 750.375 C 944.71875 750.375 943.734375 766.484375 968.070312 792.160156 C 968.070312 792.160156 936.269531 776.824219 926.707031 724.148438 C 926.707031 724.148438 924.929688 776.601562 963.621094 801.9375 C 963.621094 801.9375 933.824219 808.160156 914.699219 753.488281 C 914.699219 753.488281 914.253906 803.714844 954.503906 812.605469 C 954.503906 812.605469 917.566406 820.859375 890.335938 793.953125 Z M 890.335938 793.953125 "/></g><g clip-rule="nonzero" clip-path="url(#4935d781e7)"><path style=" stroke:none;fill-rule:nonzero;fill:#000000;fill-opacity:1;" d="M 892.070312 793.953125 C 892.070312 793.953125 880.324219 826.335938 843.0625 826.335938 C 805.800781 826.335938 795.671875 821.882812 790.003906 817.835938 C 784.332031 813.789062 715.882812 766.019531 644.597656 772.902344 C 573.3125 779.785156 462.742188 824.3125 447.753906 829.980469 C 432.769531 835.648438 374.445312 818.238281 344.878906 798.808594 C 315.3125 779.378906 286.554688 746.992188 286.554688 746.992188 C 286.554688 746.992188 332.320312 782.210938 366.34375 795.164062 C 366.34375 795.164062 298.300781 737.277344 278.453125 688.703125 C 278.453125 688.703125 320.980469 746.992188 373.230469 776.949219 L 349.132812 747.707031 C 349.132812 747.707031 366.921875 768.15625 397.609375 783.046875 C 397.609375 783.046875 363.8125 754.820312 346.242188 723.707031 C 328.675781 692.589844 325.117188 680.589844 325.117188 680.589844 C 325.117188 680.589844 350.023438 738.820312 426.296875 776.15625 C 426.296875 776.15625 385.601562 739.929688 370.703125 695.257812 C 370.703125 695.257812 424.296875 760.378906 463.210938 780.378906 C 463.210938 780.378906 425.628906 725.039062 413.621094 687.699219 C 401.613281 650.363281 400.722656 647.027344 400.722656 647.027344 C 400.722656 647.027344 440.085938 733.039062 495.457031 765.265625 C 495.457031 765.265625 473.21875 740.820312 458.765625 695.035156 C 458.765625 695.035156 472.773438 732.816406 512.132812 766.378906 C 512.132812 766.378906 499.679688 754.152344 489.671875 733.707031 C 489.671875 733.707031 501.683594 752.375 527.699219 766.378906 C 527.699219 766.378906 487.894531 727.484375 474.550781 697.703125 C 461.210938 667.917969 459.207031 648.140625 459.207031 648.140625 C 459.207031 648.140625 476.554688 698.144531 510.800781 730.59375 L 528.8125 748.597656 C 528.8125 748.597656 516.804688 735.261719 507.910156 697.925781 C 507.910156 697.925781 529.796875 750.292969 555.496094 767.710938 C 555.496094 767.710938 534.371094 748.152344 513.023438 692.589844 C 491.675781 637.027344 493.230469 607.023438 493.230469 607.023438 C 493.230469 607.023438 527.03125 703.703125 571.507812 734.816406 C 571.507812 734.816406 555.273438 710.59375 548.378906 657.03125 C 548.378906 657.03125 563.058594 717.039062 601.527344 751.042969 C 601.527344 751.042969 587.675781 729.484375 585.261719 699.257812 C 585.261719 699.257812 605.308594 744.152344 624.652344 759.933594 C 624.652344 759.933594 604.640625 733.039062 597.523438 682.144531 C 597.523438 682.144531 607.308594 712.59375 620.429688 728.816406 C 620.429688 728.816406 613.980469 701.703125 611.3125 662.363281 C 608.644531 623.023438 612.421875 603.910156 612.421875 603.910156 C 612.421875 603.910156 620.875 675.03125 631.992188 710.148438 C 643.109375 745.265625 645.558594 751.042969 645.558594 751.042969 C 645.558594 751.042969 640.664062 716.816406 643.109375 681.03125 C 643.109375 681.03125 656.007812 744.597656 659.34375 754.597656 C 659.34375 754.597656 659.566406 695.921875 657.121094 668.363281 C 657.121094 668.363281 669.796875 719.925781 669.796875 739.261719 L 674.019531 693.035156 C 674.019531 693.035156 676.910156 719.039062 676.691406 729.261719 C 676.691406 729.261719 681.582031 679.921875 683.804688 650.585938 C 686.027344 621.246094 686.695312 614.355469 686.695312 614.355469 C 686.695312 614.355469 690.921875 651.25 690.03125 698.589844 C 689.140625 745.929688 696.035156 758.375 696.035156 758.375 C 696.035156 758.375 701.816406 704.148438 711.601562 678.367188 C 711.601562 678.367188 709.824219 740.820312 708.488281 751.488281 L 707.15625 762.15625 C 707.15625 762.15625 716.496094 749.929688 723.832031 690.144531 C 723.832031 690.144531 727.835938 717.039062 724.054688 732.59375 C 724.054688 732.59375 736.953125 692.8125 736.285156 639.25 C 736.285156 639.25 745.625 670.363281 742.289062 719.484375 C 738.953125 768.601562 736.953125 771.265625 736.953125 771.265625 C 736.953125 771.265625 747.402344 755.710938 757.410156 725.484375 C 767.417969 695.257812 768.308594 688.144531 768.308594 688.144531 C 768.308594 688.144531 767.195312 741.929688 749.628906 775.710938 C 749.628906 775.710938 770.976562 756.820312 780.316406 704.589844 C 780.316406 704.589844 782.761719 722.59375 778.757812 739.707031 C 778.757812 739.707031 793.214844 728.59375 798.996094 677.921875 C 798.996094 677.921875 815.226562 730.152344 777.203125 784.824219 C 777.203125 784.824219 813.894531 768.15625 821.675781 711.257812 C 821.675781 711.257812 828.792969 758.15625 796.992188 791.714844 C 796.992188 791.714844 813.671875 790.160156 837.6875 750.375 C 837.6875 750.375 838.671875 766.484375 814.339844 792.160156 C 814.339844 792.160156 846.136719 776.824219 855.699219 724.148438 C 855.699219 724.148438 857.480469 776.601562 818.785156 801.9375 C 818.785156 801.9375 848.582031 808.160156 867.707031 753.488281 C 867.707031 753.488281 868.152344 803.714844 827.902344 812.605469 C 827.902344 812.605469 864.839844 820.859375 892.070312 793.953125 Z M 892.070312 793.953125 "/></g></g></svg>