<svg xmlns="http://www.w3.org/2000/svg" xmlns:xlink="http://www.w3.org/1999/xlink" width="2380" zoomAndPan="magnify" viewBox="0 0 1784.88 1784.99993" height="2380" preserveAspectRatio="xMidYMid meet" version="1.2"><defs><clipPath id="2d30ce780e"><path d="M 0 4.75 L 1780.191406 4.75 L 1780.191406 1784.9375 L 0 1784.9375 Z M 0 4.75 "/></clipPath><clipPath id="8ef1658da5"><path d="M 890.09375 4.75 C 398.507812 4.75 0 403.257812 0 894.84375 C 0 1386.429688 398.507812 1784.941406 890.09375 1784.941406 C 1381.679688 1784.941406 1780.191406 1386.429688 1780.191406 894.84375 C 1780.191406 403.257812 1381.679688 4.75 890.09375 4.75 Z M 890.09375 4.75 "/></clipPath><clipPath id="ca09c50622"><path d="M 0 4.75 L 1780.183594 4.75 L 1780.183594 1784.933594 L 0 1784.933594 Z M 0 4.75 "/></clipPath><clipPath id="3390c7e41f"><path d="M 890.089844 4.75 C 398.507812 4.75 0 403.257812 0 894.84375 C 0 1386.425781 398.507812 1784.933594 890.089844 1784.933594 C 1381.675781 1784.933594 1780.183594 1386.425781 1780.183594 894.84375 C 1780.183594 403.257812 1381.675781 4.75 890.089844 4.75 Z M 890.089844 4.75 "/></clipPath><clipPath id="38c4d7a778"><path d="M 429.773438 612.507812 L 861.625 612.507812 L 861.625 1026.777344 L 429.773438 1026.777344 Z M 429.773438 612.507812 "/></clipPath><clipPath id="103cbb3cc7"><path d="M 923.042969 612.507812 L 1355.164062 612.507812 L 1355.164062 1026.777344 L 923.042969 1026.777344 Z M 923.042969 612.507812 "/></clipPath><clipPath id="163438bf9f"><path d="M 433 1062 L 1352 1062 L 1352 1606.929688 L 433 1606.929688 Z M 433 1062 "/></clipPath><clipPath id="e88347c13f"><path d="M 890.09375 603.953125 L 1504.34375 603.953125 L 1504.34375 832 L 890.09375 832 Z M 890.09375 603.953125 "/></clipPath><clipPath id="fed78300a2"><path d="M 278.183594 603.953125 L 892.175781 603.953125 L 892.175781 832 L 278.183594 832 Z M 278.183594 603.953125 "/></clipPath></defs><g id="c0a85fb49f"><g clip-rule="nonzero" clip-path="url(#2d30ce780e)"><g clip-rule="nonzero" clip-path="url(#8ef1658da5)"><path style=" stroke:none;fill-rule:nonzero;fill:#ffffff;fill-opacity:1;" d="M 0 4.75 L 1780.191406 4.75 L 1780.191406 1784.941406 L 0 1784.941406 Z M 0 4.75 "/></g></g><g clip-rule="nonzero" clip-path="url(#ca09c50622)"><g clip-rule="nonzero" clip-path="url(#3390c7e41f)"><path style="fill:none;stroke-width:40;stroke-linecap:butt;stroke-linejoin:miter;stroke:#000000;stroke-opacity:1;stroke-miterlimit:4;" d="M 1186.786545 -0.000264258 C 531.343789 -0.000264258 0.000000000000227374 531.343525 0.000000000000227374 1186.791489 C 0.000000000000227374 1842.234245 531.343789 2373.578034 1186.786545 2373.578034 C 1842.23451 2373.578034 2373.578298 1842.234245 2373.578298 1186.791489 C 2373.578298 531.343525 1842.23451 -0.000264258 1186.786545 -0.000264258 Z M 1186.786545 -0.000264258 " transform="matrix(0.75,0,0,0.75,-0.00000000000017053,4.750198)"/></g></g><g clip-rule="nonzero" clip-path="url(#38c4d7a778)"><path style=" stroke:none;fill-rule:evenodd;fill:#000000;fill-opacity:1;" d="M 668.578125 612.746094 C 754.65625 611.480469 843.527344 687.757812 858.71875 781.15625 C 891.246094 981.320312 642.460938 1076.007812 508.664062 1001.375 C 375.277344 926.964844 425.472656 667.003906 551.890625 621.375 C 585.769531 609.152344 628.253906 613.328125 668.578125 612.746094 M 720.414062 634.332031 C 580.984375 612.515625 482.191406 657.03125 456.8125 776.828125 C 595.535156 791.304688 710.761719 769.726562 832.785156 785.472656 C 818.5625 711.859375 768.710938 673.886719 720.414062 634.332031 M 452.515625 802.738281 L 452.515625 867.511719 C 492.246094 867.441406 522.5 879.539062 551.890625 871.835938 C 544.570312 855.4375 539.46875 825.957031 547.5625 807.054688 C 518.878906 800.144531 483.132812 795.75 452.515625 802.738281 M 569.183594 807.054688 C 558.183594 835.917969 569.902344 862.355469 582.140625 880.457031 C 641.316406 874.828125 658.957031 883.925781 711.789062 871.835938 C 711.316406 847.828125 715.214844 819.449219 703.160156 807.054688 C 656.367188 807.28125 612.980469 797.511719 569.183594 807.054688 M 733.386719 876.152344 C 761.023438 884.175781 789.65625 868.550781 824.136719 880.457031 C 829.546875 858.5 838.21875 839.84375 837.089844 811.371094 C 807 818.980469 782.519531 794.265625 729.082031 802.738281 C 735.472656 828.738281 739.179688 847.042969 733.386719 876.152344 M 802.539062 906.378906 C 681.957031 892.9375 608.894531 908.351562 461.144531 889.105469 C 472.277344 1058.996094 772.503906 1016.765625 802.539062 906.378906 "/></g><path style=" stroke:none;fill-rule:evenodd;fill:#ffffff;fill-opacity:1;" d="M 832.785156 785.472656 C 710.761719 769.726562 595.535156 791.304688 456.8125 776.828125 C 482.191406 657.027344 580.984375 612.515625 720.414062 634.328125 C 768.710938 673.886719 818.566406 711.859375 832.785156 785.472656 "/><path style=" stroke:none;fill-rule:evenodd;fill:#ffffff;fill-opacity:1;" d="M 547.5625 807.054688 C 539.46875 825.957031 544.574219 855.4375 551.890625 871.835938 C 522.5 879.539062 492.246094 867.441406 452.515625 867.511719 L 452.515625 802.738281 C 483.132812 795.75 518.878906 800.144531 547.5625 807.054688 "/><path style=" stroke:none;fill-rule:evenodd;fill:#000000;fill-opacity:1;" d="M 703.160156 807.054688 C 715.21875 819.449219 711.316406 847.828125 711.789062 871.835938 C 658.960938 883.925781 641.316406 874.828125 582.140625 880.457031 C 569.902344 862.355469 558.183594 835.917969 569.183594 807.054688 C 612.980469 797.511719 656.367188 807.28125 703.160156 807.054688 "/><path style=" stroke:none;fill-rule:evenodd;fill:#ffffff;fill-opacity:1;" d="M 729.082031 802.738281 C 782.519531 794.265625 807.003906 818.980469 837.09375 811.371094 C 838.21875 839.84375 829.546875 858.5 824.136719 880.457031 C 789.65625 868.546875 761.027344 884.175781 733.390625 876.152344 C 739.183594 847.042969 735.472656 828.738281 729.082031 802.738281 "/><path style=" stroke:none;fill-rule:evenodd;fill:#ffffff;fill-opacity:1;" d="M 461.144531 889.105469 C 608.894531 908.351562 681.957031 892.9375 802.539062 906.378906 C 772.507812 1016.765625 472.277344 1058.996094 461.144531 889.105469 "/><g clip-rule="nonzero" clip-path="url(#103cbb3cc7)"><path style=" stroke:none;fill-rule:evenodd;fill:#000000;fill-opacity:1;" d="M 1162.117188 612.746094 C 1248.195312 611.476562 1337.074219 687.757812 1352.261719 781.15625 C 1384.792969 981.320312 1136.003906 1076.007812 1002.207031 1001.375 C 868.820312 926.960938 919.007812 667 1045.433594 621.375 C 1079.316406 609.148438 1121.792969 613.328125 1162.117188 612.746094 M 1213.957031 634.328125 C 1074.53125 612.515625 975.730469 657.027344 950.355469 776.828125 C 1089.074219 791.304688 1204.304688 769.726562 1326.328125 785.46875 C 1312.105469 711.859375 1262.253906 673.882812 1213.957031 634.328125 M 946.054688 802.738281 L 946.054688 867.511719 C 985.789062 867.441406 1016.042969 879.539062 1045.433594 871.835938 C 1038.109375 855.4375 1033.011719 825.957031 1041.101562 807.054688 C 1012.421875 800.144531 976.671875 795.75 946.054688 802.738281 M 1062.726562 807.054688 C 1051.722656 835.917969 1063.449219 862.355469 1075.683594 880.457031 C 1134.855469 874.828125 1152.5 883.925781 1205.332031 871.835938 C 1204.855469 847.828125 1208.757812 819.449219 1196.703125 807.054688 C 1149.90625 807.28125 1106.519531 797.511719 1062.726562 807.054688 M 1226.929688 876.152344 C 1254.566406 884.175781 1283.195312 868.550781 1317.679688 880.457031 C 1323.089844 858.5 1331.761719 839.84375 1330.636719 811.371094 C 1300.539062 818.980469 1276.0625 794.265625 1222.621094 802.738281 C 1229.011719 828.738281 1232.71875 847.042969 1226.929688 876.152344 M 1296.078125 906.378906 C 1175.5 892.9375 1102.433594 908.351562 954.683594 889.105469 C 965.820312 1058.996094 1266.046875 1016.765625 1296.078125 906.378906 "/></g><path style=" stroke:none;fill-rule:evenodd;fill:#ffffff;fill-opacity:1;" d="M 1326.328125 785.46875 C 1204.304688 769.726562 1089.078125 791.304688 950.351562 776.828125 C 975.730469 657.027344 1074.527344 612.515625 1213.957031 634.328125 C 1262.25 673.886719 1312.105469 711.859375 1326.328125 785.46875 "/><path style=" stroke:none;fill-rule:evenodd;fill:#ffffff;fill-opacity:1;" d="M 1041.101562 807.054688 C 1033.011719 825.957031 1038.113281 855.4375 1045.429688 871.835938 C 1016.039062 879.539062 985.789062 867.441406 946.054688 867.511719 L 946.054688 802.738281 C 976.671875 795.75 1012.421875 800.144531 1041.101562 807.054688 "/><path style=" stroke:none;fill-rule:evenodd;fill:#000000;fill-opacity:1;" d="M 1196.707031 807.054688 C 1208.757812 819.449219 1204.859375 847.828125 1205.332031 871.832031 C 1152.5 883.925781 1134.855469 874.828125 1075.683594 880.457031 C 1063.449219 862.355469 1051.726562 835.917969 1062.730469 807.054688 C 1106.527344 797.511719 1149.910156 807.277344 1196.707031 807.054688 "/><path style=" stroke:none;fill-rule:evenodd;fill:#ffffff;fill-opacity:1;" d="M 1222.625 802.738281 C 1276.0625 794.265625 1300.542969 818.980469 1330.636719 811.371094 C 1331.761719 839.84375 1323.089844 858.5 1317.675781 880.457031 C 1283.195312 868.550781 1254.566406 884.175781 1226.929688 876.152344 C 1232.726562 847.042969 1229.011719 828.738281 1222.625 802.738281 "/><path style=" stroke:none;fill-rule:evenodd;fill:#ffffff;fill-opacity:1;" d="M 954.683594 889.105469 C 1102.429688 908.351562 1175.492188 892.9375 1296.078125 906.378906 C 1266.046875 1016.765625 965.820312 1058.996094 954.683594 889.105469 "/><g clip-rule="nonzero" clip-path="url(#163438bf9f)"><path style=" stroke:none;fill-rule:nonzero;fill:#000000;fill-opacity:1;" d="M 1334.492188 1314.296875 C 1254.710938 1297.574219 1191.382812 1222.328125 1156.507812 1181.984375 C 1098.777344 1115.097656 1053.207031 1062.507812 987.582031 1062.507812 C 979.3125 1062.210938 971.058594 1062.488281 962.820312 1063.332031 C 954.585938 1064.179688 946.449219 1065.585938 938.410156 1067.558594 C 930.367188 1069.53125 922.5 1072.046875 914.808594 1075.109375 C 907.117188 1078.167969 899.671875 1081.742188 892.472656 1085.835938 C 885.28125 1081.726562 877.84375 1078.136719 870.15625 1075.058594 C 862.46875 1071.980469 854.605469 1069.445312 846.570312 1067.457031 C 838.53125 1065.46875 830.398438 1064.039062 822.164062 1063.175781 C 813.929688 1062.3125 805.675781 1062.019531 797.398438 1062.300781 C 731.777344 1062.300781 686.207031 1115.015625 628.476562 1181.777344 C 587.792969 1228.808594 530.359375 1297.117188 450.574219 1314.296875 C 449.417969 1314.554688 448.285156 1314.90625 447.1875 1315.351562 C 446.085938 1315.792969 445.027344 1316.324219 444.015625 1316.945312 C 443 1317.5625 442.046875 1318.261719 441.148438 1319.035156 C 440.25 1319.8125 439.421875 1320.65625 438.660156 1321.570312 C 437.902344 1322.484375 437.222656 1323.453125 436.621094 1324.480469 C 436.023438 1325.503906 435.511719 1326.570312 435.085938 1327.679688 C 434.664062 1328.789062 434.335938 1329.925781 434.097656 1331.089844 C 433.859375 1332.253906 433.722656 1333.429688 433.679688 1334.617188 C 433.636719 1335.804688 433.691406 1336.988281 433.84375 1338.167969 C 433.996094 1339.34375 434.242188 1340.503906 434.585938 1341.640625 C 434.929688 1342.777344 435.363281 1343.878906 435.886719 1344.945312 C 436.410156 1346.007812 437.019531 1347.023438 437.710938 1347.992188 C 438.402344 1348.957031 439.167969 1349.859375 440.007812 1350.695312 C 440.847656 1351.535156 441.753906 1352.300781 442.71875 1352.992188 C 443.683594 1353.679688 444.699219 1354.285156 445.765625 1354.808594 C 446.832031 1355.332031 447.933594 1355.761719 449.070312 1356.101562 C 663.316406 1415.632812 566.03125 1608.226562 892.472656 1608.226562 C 1218.910156 1608.226562 1127.601562 1410.867188 1335.953125 1356.101562 C 1337.085938 1355.757812 1338.179688 1355.320312 1339.238281 1354.792969 C 1340.296875 1354.265625 1341.308594 1353.660156 1342.265625 1352.96875 C 1343.226562 1352.273438 1344.125 1351.511719 1344.957031 1350.671875 C 1345.792969 1349.832031 1346.550781 1348.929688 1347.238281 1347.96875 C 1347.925781 1347.003906 1348.527344 1345.992188 1349.046875 1344.929688 C 1349.570312 1343.867188 1350 1342.765625 1350.339844 1341.632812 C 1350.679688 1340.5 1350.925781 1339.347656 1351.078125 1338.171875 C 1351.230469 1337 1351.285156 1335.820312 1351.242188 1334.640625 C 1351.203125 1333.457031 1351.066406 1332.285156 1350.832031 1331.125 C 1350.597656 1329.964844 1350.273438 1328.832031 1349.855469 1327.722656 C 1349.433594 1326.617188 1348.929688 1325.550781 1348.335938 1324.527344 C 1347.742188 1323.503906 1347.070312 1322.535156 1346.316406 1321.625 C 1345.566406 1320.710938 1344.742188 1319.863281 1343.851562 1319.085938 C 1342.960938 1318.308594 1342.015625 1317.605469 1341.007812 1316.984375 C 1340.003906 1316.359375 1338.953125 1315.824219 1337.859375 1315.375 C 1336.765625 1314.921875 1335.644531 1314.5625 1334.492188 1314.296875 Z M 892.472656 1565.125 C 652.496094 1565.125 674.71875 1453.214844 573.296875 1373.324219 C 673.550781 1384.488281 730.609375 1390.046875 807.84375 1355.601562 C 811.109375 1353.941406 814.417969 1352.378906 817.773438 1350.914062 C 821.128906 1349.453125 824.527344 1348.085938 827.964844 1346.824219 C 831.398438 1345.558594 834.871094 1344.394531 838.375 1343.335938 C 841.878906 1342.273438 845.410156 1341.316406 848.972656 1340.464844 C 852.53125 1339.609375 856.117188 1338.863281 859.71875 1338.222656 C 863.324219 1337.578125 866.945312 1337.042969 870.582031 1336.613281 C 874.21875 1336.183594 877.863281 1335.863281 881.519531 1335.648438 C 885.171875 1335.433594 888.832031 1335.324219 892.492188 1335.324219 C 896.152344 1335.324219 899.8125 1335.433594 903.464844 1335.648438 C 907.121094 1335.863281 910.765625 1336.183594 914.402344 1336.613281 C 918.039062 1337.042969 921.660156 1337.578125 925.265625 1338.222656 C 928.867188 1338.863281 932.453125 1339.609375 936.011719 1340.464844 C 939.574219 1341.316406 943.105469 1342.273438 946.609375 1343.335938 C 950.113281 1344.394531 953.585938 1345.558594 957.019531 1346.824219 C 960.457031 1348.085938 963.855469 1349.453125 967.210938 1350.914062 C 970.566406 1352.378906 973.875 1353.941406 977.140625 1355.601562 C 1051.578125 1389.042969 1103.625 1385.324219 1211.726562 1373.285156 C 1110.515625 1452.878906 1132.988281 1565.125 892.472656 1565.125 Z M 994.769531 1316.304688 C 990.8125 1314.332031 986.800781 1312.472656 982.738281 1310.730469 C 978.671875 1308.988281 974.5625 1307.367188 970.402344 1305.863281 C 966.246094 1304.359375 962.046875 1302.976562 957.808594 1301.714844 C 953.570312 1300.453125 949.300781 1299.316406 944.996094 1298.300781 C 940.695312 1297.289062 936.363281 1296.398438 932.011719 1295.636719 C 927.65625 1294.871094 923.28125 1294.234375 918.890625 1293.726562 C 914.5 1293.214844 910.09375 1292.832031 905.683594 1292.578125 C 901.269531 1292.320312 896.851562 1292.191406 892.429688 1292.191406 C 888.007812 1292.191406 883.589844 1292.320312 879.175781 1292.578125 C 874.761719 1292.832031 870.359375 1293.214844 865.96875 1293.726562 C 861.578125 1294.234375 857.203125 1294.871094 852.847656 1295.636719 C 848.492188 1296.398438 844.164062 1297.289062 839.859375 1298.300781 C 835.558594 1299.316406 831.285156 1300.453125 827.050781 1301.714844 C 822.8125 1302.976562 818.613281 1304.359375 814.457031 1305.863281 C 810.296875 1307.367188 806.1875 1308.988281 802.121094 1310.730469 C 798.058594 1312.472656 794.046875 1314.332031 790.089844 1316.304688 C 719.078125 1348.203125 659.972656 1341.597656 534.285156 1325.125 C 546.492188 1317.542969 558.328125 1309.421875 569.796875 1300.757812 C 581.261719 1292.097656 592.3125 1282.929688 602.941406 1273.257812 C 613.574219 1263.585938 623.742188 1253.449219 633.449219 1242.847656 C 643.152344 1232.25 652.359375 1221.226562 661.058594 1209.785156 C 713.523438 1149.253906 751.453125 1105.273438 797.398438 1105.273438 C 800.921875 1104.996094 804.445312 1104.871094 807.976562 1104.902344 C 811.507812 1104.933594 815.03125 1105.121094 818.542969 1105.464844 C 822.058594 1105.804688 825.550781 1106.304688 829.019531 1106.953125 C 832.492188 1107.605469 835.925781 1108.40625 839.328125 1109.359375 C 842.726562 1110.316406 846.078125 1111.417969 849.382812 1112.664062 C 852.683594 1113.914062 855.925781 1115.308594 859.105469 1116.84375 C 862.285156 1118.378906 865.390625 1120.050781 868.425781 1121.863281 C 871.457031 1123.671875 874.40625 1125.613281 877.265625 1127.679688 C 877.765625 1128.164062 878.285156 1128.625 878.828125 1129.058594 C 879.371094 1129.492188 879.933594 1129.902344 880.515625 1130.28125 C 881.097656 1130.664062 881.695312 1131.015625 882.308594 1131.339844 C 882.925781 1131.660156 883.554688 1131.957031 884.199219 1132.21875 C 884.839844 1132.484375 885.496094 1132.714844 886.160156 1132.917969 C 886.824219 1133.117188 887.496094 1133.289062 888.179688 1133.425781 C 888.859375 1133.5625 889.546875 1133.667969 890.238281 1133.738281 C 890.929688 1133.808594 891.621094 1133.847656 892.316406 1133.855469 C 893.011719 1133.859375 893.703125 1133.832031 894.398438 1133.773438 C 895.089844 1133.710938 895.777344 1133.621094 896.460938 1133.492188 C 897.144531 1133.367188 897.820312 1133.210938 898.488281 1133.019531 C 899.15625 1132.828125 899.816406 1132.605469 900.460938 1132.355469 C 901.109375 1132.101562 901.742188 1131.816406 902.363281 1131.503906 C 902.984375 1131.191406 903.585938 1130.847656 904.175781 1130.476562 C 904.761719 1130.105469 905.332031 1129.707031 905.882812 1129.285156 C 906.429688 1128.859375 906.960938 1128.40625 907.46875 1127.933594 C 910.328125 1125.839844 913.28125 1123.878906 916.316406 1122.046875 C 919.355469 1120.21875 922.46875 1118.527344 925.65625 1116.972656 C 928.84375 1115.417969 932.09375 1114.011719 935.40625 1112.746094 C 938.71875 1111.484375 942.082031 1110.367188 945.492188 1109.402344 C 948.902344 1108.4375 952.351562 1107.625 955.835938 1106.96875 C 959.320312 1106.3125 962.824219 1105.808594 966.355469 1105.460938 C 969.882812 1105.117188 973.417969 1104.925781 976.964844 1104.894531 C 980.511719 1104.863281 984.050781 1104.992188 987.582031 1105.273438 C 1033.53125 1105.273438 1071.460938 1149.128906 1123.925781 1209.785156 C 1132.65625 1221.171875 1141.878906 1232.140625 1151.589844 1242.699219 C 1161.304688 1253.253906 1171.46875 1263.355469 1182.085938 1273 C 1192.707031 1282.644531 1203.734375 1291.796875 1215.171875 1300.453125 C 1226.609375 1309.109375 1238.410156 1317.234375 1250.574219 1324.832031 C 1127.265625 1341.136719 1066.113281 1348.203125 994.769531 1316.179688 Z M 994.769531 1316.304688 "/></g><g style="fill:#000000;fill-opacity:1;"><g transform="translate(511.368927, 515.558689)"><path style="stroke:none" d="M 188.976562 -178.515625 C 196.605469 -190.285156 201.128906 -199.496094 202.546875 -206.144531 C 203.964844 -212.789062 202.65625 -217.53125 198.621094 -220.363281 C 194.589844 -223.199219 187.996094 -224.722656 178.84375 -224.941406 L 180.476562 -231.480469 C 184.617188 -231.261719 188.8125 -231.101562 193.066406 -230.992188 C 197.316406 -230.882812 201.566406 -230.773438 205.816406 -230.664062 C 210.066406 -230.554688 214.042969 -230.5 217.75 -230.5 C 223.417969 -230.5 228.101562 -230.609375 231.808594 -230.828125 C 235.515625 -231.046875 239.109375 -231.261719 242.597656 -231.480469 L 240.964844 -224.941406 C 237.910156 -224.289062 234.640625 -222.980469 231.15625 -221.019531 C 227.667969 -219.058594 223.960938 -216.113281 220.039062 -212.191406 C 216.113281 -208.269531 212.082031 -203.035156 207.941406 -196.496094 L 79.121094 1.632812 C 78.25 1.632812 77.433594 1.632812 76.671875 1.632812 C 75.90625 1.632812 75.089844 1.632812 74.21875 1.632812 L 48.390625 -204.015625 C 47.515625 -211.863281 45.226562 -217.257812 41.523438 -220.203125 C 37.816406 -223.144531 34.4375 -224.722656 31.386719 -224.941406 L 33.023438 -231.480469 C 37.382812 -231.261719 42.832031 -231.046875 49.371094 -230.828125 C 55.910156 -230.609375 62.230469 -230.5 68.332031 -230.5 C 76.832031 -230.5 84.300781 -230.609375 90.730469 -230.828125 C 97.160156 -231.046875 102.773438 -231.261719 107.566406 -231.480469 L 105.933594 -224.941406 C 99.175781 -224.722656 93.671875 -224.015625 89.421875 -222.816406 C 85.171875 -221.617188 82.28125 -219.113281 80.757812 -215.296875 C 79.230469 -211.484375 78.902344 -205.542969 79.777344 -197.476562 L 98.738281 -36.945312 L 97.105469 -37.597656 Z M 188.976562 -178.515625 "/></g></g><g style="fill:#000000;fill-opacity:1;"><g transform="translate(718.001636, 515.558689)"><path style="stroke:none" d="M 61.792969 -227.558594 C 62.882812 -233.226562 65.773438 -238.128906 70.457031 -242.269531 C 75.144531 -246.410156 80.210938 -248.484375 85.660156 -248.484375 C 91.328125 -248.484375 95.742188 -246.410156 98.902344 -242.269531 C 102.0625 -238.128906 103.097656 -233.226562 102.007812 -227.558594 C 100.917969 -221.890625 98.03125 -216.988281 93.34375 -212.84375 C 88.660156 -208.703125 83.480469 -206.632812 77.8125 -206.632812 C 72.363281 -206.632812 68.058594 -208.703125 64.898438 -212.84375 C 61.738281 -216.988281 60.703125 -221.890625 61.792969 -227.558594 Z M 51.660156 -140.261719 C 56.234375 -153.777344 54.710938 -160.53125 47.082031 -160.53125 C 42.066406 -160.53125 37.597656 -157.808594 33.675781 -152.359375 C 29.753906 -146.910156 25.609375 -138.519531 21.25 -127.183594 L 16.675781 -115.085938 L 10.460938 -115.085938 L 18.964844 -138.953125 C 22.234375 -148.109375 26.15625 -155.082031 30.734375 -159.878906 C 35.3125 -164.675781 40.160156 -168 45.28125 -169.851562 C 50.40625 -171.703125 55.144531 -172.628906 59.503906 -172.628906 C 66.480469 -172.628906 71.601562 -171.214844 74.871094 -168.378906 C 78.140625 -165.546875 80.101562 -161.839844 80.757812 -157.261719 C 81.410156 -152.6875 81.191406 -147.726562 80.101562 -142.386719 C 79.011719 -137.046875 77.597656 -131.871094 75.851562 -126.855469 L 40.867188 -27.789062 C 38.6875 -21.46875 37.980469 -16.511719 38.742188 -12.914062 C 39.507812 -9.316406 41.957031 -7.519531 46.101562 -7.519531 C 50.460938 -7.519531 54.601562 -9.917969 58.523438 -14.710938 C 62.449219 -19.507812 66.808594 -28.226562 71.601562 -40.867188 L 76.179688 -52.964844 L 82.390625 -52.964844 L 73.890625 -29.097656 C 70.839844 -20.597656 67.132812 -13.894531 62.773438 -8.992188 C 58.414062 -4.085938 53.730469 -0.597656 48.714844 1.472656 C 43.703125 3.542969 38.6875 4.578125 33.675781 4.578125 C 24.304688 4.578125 17.980469 2.398438 14.710938 -1.960938 C 11.441406 -6.320312 10.246094 -11.988281 11.117188 -18.964844 C 11.988281 -25.9375 13.839844 -33.347656 16.675781 -41.195312 Z M 51.660156 -140.261719 "/></g></g><g style="fill:#000000;fill-opacity:1;"><g transform="translate(825.241415, 515.558689)"><path style="stroke:none" d="M 108.875 -162.167969 C 103.207031 -162.167969 96.832031 -158.191406 89.75 -150.234375 C 82.664062 -142.277344 75.472656 -131.488281 68.167969 -117.867188 C 60.867188 -104.242188 54 -88.929688 47.570312 -71.929688 C 41.140625 -54.929688 35.746094 -37.273438 31.386719 -18.964844 L 36.945312 -54.273438 C 46.316406 -82.828125 55.417969 -105.769531 64.246094 -123.097656 C 73.074219 -140.425781 81.902344 -153.011719 90.730469 -160.859375 C 99.554688 -168.707031 108.765625 -172.628906 118.355469 -172.628906 C 128.601562 -172.628906 136.828125 -168.816406 143.042969 -161.1875 C 149.253906 -153.558594 152.359375 -142.003906 152.359375 -126.53125 C 152.359375 -116.722656 150.996094 -105.933594 148.273438 -94.160156 C 145.546875 -82.390625 141.515625 -70.730469 136.175781 -59.179688 C 130.835938 -47.625 124.296875 -37 116.558594 -27.300781 C 108.820312 -17.601562 99.9375 -9.863281 89.910156 -4.085938 C 79.886719 1.6875 68.769531 4.578125 56.5625 4.578125 C 50.023438 4.578125 44.191406 2.617188 39.070312 -1.308594 C 33.949219 -5.230469 30.515625 -10.898438 28.773438 -18.308594 L 31.386719 -24.847656 C 34.4375 -16.785156 37.980469 -11.117188 42.011719 -7.847656 C 46.046875 -4.578125 50.785156 -2.941406 56.234375 -2.941406 C 63.644531 -2.941406 70.730469 -5.832031 77.488281 -11.605469 C 84.246094 -17.382812 90.457031 -25.066406 96.125 -34.65625 C 101.789062 -44.246094 106.75 -54.875 111 -66.535156 C 115.25 -78.195312 118.519531 -89.855469 120.808594 -101.519531 C 123.097656 -113.179688 124.242188 -123.914062 124.242188 -133.722656 C 124.242188 -143.3125 122.878906 -150.453125 120.15625 -155.136719 C 117.429688 -159.824219 113.671875 -162.167969 108.875 -162.167969 Z M 32.695312 -20.269531 C 27.464844 -16.128906 22.234375 -11.933594 17 -7.683594 C 11.769531 -3.433594 6.539062 0.871094 1.308594 5.230469 L -3.597656 2.941406 C -2.070312 -0.109375 -0.816406 -3.214844 0.164062 -6.375 C 1.144531 -9.535156 1.960938 -12.75 2.617188 -16.019531 L 59.832031 -218.078125 C 61.574219 -225.488281 61.25 -230.9375 58.851562 -234.425781 C 56.453125 -237.910156 49.914062 -239.65625 39.234375 -239.65625 L 40.867188 -246.519531 C 52.855469 -246.738281 63.429688 -247.992188 72.582031 -250.28125 C 81.738281 -252.570312 90.347656 -255.785156 98.414062 -259.925781 Z M 32.695312 -20.269531 "/></g></g><g style="fill:#000000;fill-opacity:1;"><g transform="translate(990.024454, 515.558689)"><path style="stroke:none" d="M 27.464844 -74.21875 C 39.671875 -78.359375 50.730469 -82.445312 60.648438 -86.480469 C 70.566406 -90.511719 78.46875 -94.816406 84.351562 -99.394531 C 92.199219 -105.714844 98.414062 -113.34375 102.988281 -122.28125 C 107.566406 -131.214844 109.855469 -141.023438 109.855469 -151.707031 C 109.855469 -158.027344 109.417969 -162.058594 108.546875 -163.800781 C 107.675781 -165.546875 106.367188 -166.417969 104.625 -166.417969 C 99.175781 -166.417969 93.289062 -164.019531 86.96875 -159.226562 C 80.648438 -154.429688 74.4375 -147.835938 68.332031 -139.445312 C 62.230469 -131.054688 56.617188 -121.515625 51.496094 -110.835938 C 46.371094 -100.15625 42.285156 -88.765625 39.234375 -76.671875 C 36.183594 -64.574219 34.65625 -52.53125 34.65625 -40.542969 C 34.65625 -29.425781 36.726562 -21.414062 40.867188 -16.511719 C 45.011719 -11.605469 50.460938 -9.15625 57.214844 -9.15625 C 65.0625 -9.15625 73.347656 -11.550781 82.066406 -16.347656 C 90.785156 -21.144531 99.285156 -29.644531 107.566406 -41.851562 L 112.796875 -39.234375 C 108.65625 -32.042969 103.207031 -25.066406 96.449219 -18.308594 C 89.695312 -11.550781 82.121094 -6.046875 73.726562 -1.796875 C 65.335938 2.453125 56.453125 4.578125 47.082031 4.578125 C 38.363281 4.578125 30.734375 2.832031 24.195312 -0.652344 C 17.65625 -4.140625 12.640625 -9.316406 9.15625 -16.183594 C 5.667969 -23.050781 3.921875 -31.496094 3.921875 -41.523438 C 3.921875 -50.894531 5.667969 -61.414062 9.15625 -73.074219 C 12.640625 -84.734375 17.601562 -96.394531 24.03125 -108.058594 C 30.460938 -119.71875 38.144531 -130.453125 47.082031 -140.261719 C 56.019531 -150.070312 65.933594 -157.917969 76.832031 -163.800781 C 87.730469 -169.6875 99.394531 -172.628906 111.816406 -172.628906 C 118.574219 -172.628906 124.296875 -170.832031 128.980469 -167.234375 C 133.667969 -163.640625 136.011719 -158.246094 136.011719 -151.050781 C 136.011719 -142.332031 133.449219 -134.214844 128.328125 -126.695312 C 123.207031 -119.171875 116.449219 -112.308594 108.058594 -106.09375 C 99.664062 -99.882812 90.566406 -94.378906 80.757812 -89.585938 C 70.949219 -84.789062 61.359375 -80.648438 51.984375 -77.160156 C 42.613281 -73.671875 34.328125 -70.839844 27.136719 -68.660156 Z M 27.464844 -74.21875 "/></g></g><g style="fill:#000000;fill-opacity:1;"><g transform="translate(1130.286209, 515.558689)"><path style="stroke:none" d="M 101.683594 -250.117188 C 97.539062 -250.117188 93.070312 -249.574219 88.277344 -248.484375 C 83.480469 -247.394531 79.175781 -245.648438 75.363281 -243.25 C 71.546875 -240.855469 68.988281 -237.800781 67.679688 -234.097656 C 68.988281 -233.878906 70.292969 -233.0625 71.601562 -231.644531 C 72.910156 -230.226562 74 -228.539062 74.871094 -226.578125 C 75.742188 -224.617188 76.070312 -222.328125 75.851562 -219.710938 C 75.632812 -215.351562 73.835938 -211.808594 70.457031 -209.085938 C 67.078125 -206.359375 63.101562 -205 58.523438 -205 C 54.164062 -205 50.894531 -206.25 48.714844 -208.757812 C 46.535156 -211.265625 45.445312 -214.589844 45.445312 -218.730469 C 45.445312 -224.179688 47.191406 -229.191406 50.675781 -233.769531 C 54.164062 -238.347656 58.90625 -242.269531 64.898438 -245.539062 C 70.894531 -248.808594 77.542969 -251.316406 84.84375 -253.058594 C 92.144531 -254.804688 99.503906 -255.675781 106.914062 -255.675781 C 116.503906 -255.675781 124.894531 -254.203125 132.089844 -251.261719 C 139.28125 -248.320312 144.949219 -244.015625 149.089844 -238.347656 C 153.230469 -232.679688 155.300781 -225.597656 155.300781 -217.09375 C 155.300781 -210.339844 153.667969 -203.527344 150.398438 -196.660156 C 147.128906 -189.796875 141.570312 -182.273438 133.722656 -174.101562 C 125.875 -165.925781 115.085938 -156.5 101.355469 -145.820312 C 90.019531 -137.101562 80.429688 -129.855469 72.582031 -124.078125 C 64.734375 -118.300781 58.796875 -112.851562 54.765625 -107.730469 C 50.730469 -102.609375 48.714844 -96.558594 48.714844 -89.585938 C 48.714844 -83.480469 50.460938 -78.195312 53.945312 -73.726562 C 57.433594 -69.257812 63.429688 -67.023438 71.929688 -67.023438 C 78.03125 -67.023438 84.246094 -68.277344 90.566406 -70.785156 C 96.886719 -73.292969 101.136719 -76.832031 103.316406 -81.410156 C 101.355469 -81.628906 99.394531 -82.882812 97.429688 -85.171875 C 95.46875 -87.460938 94.597656 -90.019531 94.816406 -92.855469 C 94.816406 -96.125 96.179688 -99.175781 98.902344 -102.007812 C 101.628906 -104.84375 105.167969 -106.257812 109.527344 -106.257812 C 112.582031 -106.257812 115.195312 -105.441406 117.375 -103.808594 C 119.554688 -102.171875 120.644531 -99.175781 120.644531 -94.816406 C 120.644531 -89.585938 118.957031 -84.953125 115.578125 -80.921875 C 112.199219 -76.886719 107.730469 -73.402344 102.171875 -70.457031 C 96.613281 -67.515625 90.621094 -65.28125 84.191406 -63.753906 C 77.761719 -62.230469 71.601562 -61.464844 65.71875 -61.464844 C 58.304688 -61.464844 51.765625 -62.664062 46.101562 -65.0625 C 40.433594 -67.460938 36.019531 -71.003906 32.859375 -75.6875 C 29.699219 -80.375 28.117188 -86.207031 28.117188 -93.179688 C 28.117188 -102.554688 30.898438 -111 36.453125 -118.519531 C 42.011719 -126.039062 49.425781 -133.339844 58.6875 -140.425781 C 67.953125 -147.507812 78.03125 -155.191406 88.929688 -163.476562 C 98.957031 -171.105469 107.078125 -177.808594 113.289062 -183.582031 C 119.5 -189.359375 124.078125 -195.082031 127.019531 -200.746094 C 129.964844 -206.414062 131.433594 -212.628906 131.433594 -219.382812 C 131.433594 -228.320312 129.035156 -235.675781 124.242188 -241.453125 C 119.445312 -247.230469 111.925781 -250.117188 101.683594 -250.117188 Z M 34.984375 -12.097656 C 34.984375 -18.636719 37.492188 -24.46875 42.503906 -29.589844 C 47.515625 -34.710938 53.074219 -37.273438 59.179688 -37.273438 C 64.191406 -37.273438 68.222656 -35.636719 71.273438 -32.367188 C 74.328125 -29.097656 75.851562 -25.066406 75.851562 -20.269531 C 75.851562 -15.910156 74.707031 -11.824219 72.417969 -8.011719 C 70.132812 -4.195312 67.132812 -1.144531 63.429688 1.144531 C 59.722656 3.433594 55.691406 4.578125 51.332031 4.578125 C 46.535156 4.578125 42.613281 2.996094 39.5625 -0.164062 C 36.507812 -3.324219 34.984375 -7.300781 34.984375 -12.097656 Z M 34.984375 -12.097656 "/></g></g><g clip-rule="nonzero" clip-path="url(#e88347c13f)"><path style=" stroke:none;fill-rule:nonzero;fill:#000000;fill-opacity:1;" d="M 890.398438 794.003906 C 890.398438 794.003906 902.144531 826.390625 939.410156 826.390625 C 976.671875 826.390625 986.800781 821.9375 992.46875 817.890625 C 998.140625 813.84375 1066.59375 766.070312 1137.886719 772.953125 C 1209.175781 779.835938 1319.753906 824.367188 1334.742188 830.035156 C 1349.730469 835.703125 1408.054688 818.296875 1437.625 798.863281 C 1467.195312 779.429688 1495.953125 747.042969 1495.953125 747.042969 C 1495.953125 747.042969 1450.183594 782.265625 1416.15625 795.21875 C 1416.15625 795.21875 1484.207031 737.328125 1504.054688 688.746094 C 1504.054688 688.746094 1461.523438 747.042969 1409.273438 777 L 1433.371094 747.757812 C 1433.371094 747.757812 1415.578125 768.207031 1384.890625 783.097656 C 1384.890625 783.097656 1418.691406 754.871094 1436.261719 723.753906 C 1453.828125 692.636719 1457.386719 680.632812 1457.386719 680.632812 C 1457.386719 680.632812 1432.480469 738.867188 1356.199219 776.210938 C 1356.199219 776.210938 1396.898438 739.980469 1411.796875 695.304688 C 1411.796875 695.304688 1358.203125 760.429688 1319.285156 780.433594 C 1319.285156 780.433594 1356.867188 725.085938 1368.875 687.746094 C 1380.886719 650.40625 1381.773438 647.070312 1381.773438 647.070312 C 1381.773438 647.070312 1342.414062 733.089844 1287.039062 765.316406 C 1287.039062 765.316406 1309.277344 740.867188 1323.730469 695.082031 C 1323.730469 695.082031 1309.722656 732.867188 1270.359375 766.429688 C 1270.359375 766.429688 1282.8125 754.203125 1292.820312 733.757812 C 1292.820312 733.757812 1280.8125 752.425781 1254.792969 766.429688 C 1254.792969 766.429688 1294.597656 727.53125 1307.941406 697.75 C 1321.285156 667.964844 1323.289062 648.183594 1323.289062 648.183594 C 1323.289062 648.183594 1305.941406 698.191406 1271.691406 730.644531 L 1253.679688 748.648438 C 1253.679688 748.648438 1265.6875 735.3125 1274.585938 697.972656 C 1274.585938 697.972656 1252.695312 750.34375 1226.992188 767.761719 C 1226.992188 767.761719 1248.121094 748.203125 1269.46875 692.636719 C 1290.820312 637.070312 1289.261719 607.0625 1289.261719 607.0625 C 1289.261719 607.0625 1255.457031 703.75 1210.980469 734.867188 C 1210.980469 734.867188 1227.214844 710.640625 1234.109375 657.074219 C 1234.109375 657.074219 1219.433594 717.085938 1180.957031 751.09375 C 1180.957031 751.09375 1194.8125 729.53125 1197.226562 699.304688 C 1197.226562 699.304688 1177.179688 744.203125 1157.832031 759.984375 C 1157.832031 759.984375 1177.84375 733.089844 1184.960938 682.191406 C 1184.960938 682.191406 1175.175781 712.640625 1162.054688 728.867188 C 1162.054688 728.867188 1168.503906 701.75 1171.175781 662.40625 C 1173.84375 623.066406 1170.0625 603.953125 1170.0625 603.953125 C 1170.0625 603.953125 1161.609375 675.078125 1150.492188 710.195312 C 1139.371094 745.3125 1136.925781 751.09375 1136.925781 751.09375 C 1136.925781 751.09375 1141.820312 716.863281 1139.371094 681.078125 C 1139.371094 681.078125 1126.472656 744.648438 1123.136719 754.648438 C 1123.136719 754.648438 1122.914062 695.96875 1125.363281 668.410156 C 1125.363281 668.410156 1112.6875 719.976562 1112.6875 739.3125 L 1108.460938 693.082031 C 1108.460938 693.082031 1105.570312 719.085938 1105.792969 729.3125 C 1105.792969 729.3125 1100.898438 679.96875 1098.675781 650.628906 C 1096.453125 621.289062 1095.785156 614.398438 1095.785156 614.398438 C 1095.785156 614.398438 1091.558594 651.292969 1092.449219 698.636719 C 1093.339844 745.980469 1086.445312 758.429688 1086.445312 758.429688 C 1086.445312 758.429688 1080.660156 704.195312 1070.875 678.410156 C 1070.875 678.410156 1072.65625 740.867188 1073.992188 751.539062 L 1075.324219 762.207031 C 1075.324219 762.207031 1065.984375 749.980469 1058.644531 690.191406 C 1058.644531 690.191406 1054.640625 717.085938 1058.421875 732.644531 C 1058.421875 732.644531 1045.523438 692.859375 1046.191406 639.292969 C 1046.191406 639.292969 1036.851562 670.410156 1040.1875 719.53125 C 1043.523438 768.652344 1045.523438 771.320312 1045.523438 771.320312 C 1045.523438 771.320312 1035.074219 755.761719 1025.066406 725.53125 C 1015.058594 695.304688 1014.167969 688.191406 1014.167969 688.191406 C 1014.167969 688.191406 1015.28125 741.980469 1032.847656 775.765625 C 1032.847656 775.765625 1011.5 756.871094 1002.160156 704.640625 C 1002.160156 704.640625 999.710938 722.644531 1003.714844 739.757812 C 1003.714844 739.757812 989.261719 728.644531 983.476562 677.96875 C 983.476562 677.96875 967.242188 730.199219 1005.273438 784.878906 C 1005.273438 784.878906 968.578125 768.207031 960.792969 711.308594 C 960.792969 711.308594 953.679688 758.207031 985.480469 791.769531 C 985.480469 791.769531 968.800781 790.210938 944.78125 750.425781 C 944.78125 750.425781 943.796875 766.535156 968.132812 792.210938 C 968.132812 792.210938 936.332031 776.875 926.769531 724.199219 C 926.769531 724.199219 924.992188 776.652344 963.6875 801.992188 C 963.6875 801.992188 933.886719 808.214844 914.761719 753.539062 C 914.761719 753.539062 914.316406 803.769531 954.566406 812.660156 C 954.566406 812.660156 917.625 820.914062 890.398438 794.003906 Z M 890.398438 794.003906 "/></g><g clip-rule="nonzero" clip-path="url(#fed78300a2)"><path style=" stroke:none;fill-rule:nonzero;fill:#000000;fill-opacity:1;" d="M 892.128906 794.003906 C 892.128906 794.003906 880.382812 826.390625 843.117188 826.390625 C 805.851562 826.390625 795.726562 821.9375 790.054688 817.890625 C 784.386719 813.84375 715.929688 766.070312 644.640625 772.953125 C 573.351562 779.835938 462.773438 824.367188 447.785156 830.035156 C 432.796875 835.703125 374.46875 818.296875 344.902344 798.863281 C 315.332031 779.429688 286.574219 747.042969 286.574219 747.042969 C 286.574219 747.042969 332.34375 782.265625 366.371094 795.21875 C 366.371094 795.21875 298.320312 737.328125 278.472656 688.746094 C 278.472656 688.746094 321.003906 747.042969 373.253906 777 L 349.15625 747.757812 C 349.15625 747.757812 366.949219 768.207031 397.636719 783.097656 C 397.636719 783.097656 363.835938 754.871094 346.265625 723.753906 C 328.699219 692.636719 325.140625 680.632812 325.140625 680.632812 C 325.140625 680.632812 350.046875 738.867188 426.324219 776.210938 C 426.324219 776.210938 385.628906 739.980469 370.730469 695.304688 C 370.730469 695.304688 424.324219 760.429688 463.242188 780.433594 C 463.242188 780.433594 425.660156 725.085938 413.648438 687.746094 C 401.640625 650.40625 400.75 647.070312 400.75 647.070312 C 400.75 647.070312 440.113281 733.089844 495.488281 765.316406 C 495.488281 765.316406 473.25 740.867188 458.792969 695.082031 C 458.792969 695.082031 472.804688 732.867188 512.167969 766.429688 C 512.167969 766.429688 499.714844 754.203125 489.707031 733.757812 C 489.707031 733.757812 501.714844 752.425781 527.734375 766.429688 C 527.734375 766.429688 487.925781 727.53125 474.585938 697.75 C 461.242188 667.964844 459.238281 648.183594 459.238281 648.183594 C 459.238281 648.183594 476.585938 698.191406 510.832031 730.644531 L 528.847656 748.648438 C 528.847656 748.648438 516.839844 735.3125 507.941406 697.972656 C 507.941406 697.972656 529.832031 750.34375 555.535156 767.761719 C 555.535156 767.761719 534.40625 748.203125 513.058594 692.636719 C 491.707031 637.070312 493.265625 607.0625 493.265625 607.0625 C 493.265625 607.0625 527.066406 703.75 571.546875 734.867188 C 571.546875 734.867188 555.3125 710.640625 548.417969 657.074219 C 548.417969 657.074219 563.09375 717.085938 601.566406 751.09375 C 601.566406 751.09375 587.714844 729.53125 585.300781 699.304688 C 585.300781 699.304688 605.347656 744.203125 624.695312 759.984375 C 624.695312 759.984375 604.679688 733.089844 597.566406 682.191406 C 597.566406 682.191406 607.351562 712.640625 620.472656 728.867188 C 620.472656 728.867188 614.023438 701.75 611.351562 662.40625 C 608.683594 623.066406 612.464844 603.953125 612.464844 603.953125 C 612.464844 603.953125 620.914062 675.078125 632.035156 710.195312 C 643.15625 745.3125 645.601562 751.09375 645.601562 751.09375 C 645.601562 751.09375 640.707031 716.863281 643.15625 681.078125 C 643.15625 681.078125 656.054688 744.648438 659.390625 754.648438 C 659.390625 754.648438 659.609375 695.96875 657.164062 668.410156 C 657.164062 668.410156 669.839844 719.976562 669.839844 739.3125 L 674.066406 693.082031 C 674.066406 693.082031 676.957031 719.085938 676.734375 729.3125 C 676.734375 729.3125 681.628906 679.96875 683.851562 650.628906 C 686.074219 621.289062 686.742188 614.398438 686.742188 614.398438 C 686.742188 614.398438 690.96875 651.292969 690.078125 698.636719 C 689.1875 745.980469 696.082031 758.429688 696.082031 758.429688 C 696.082031 758.429688 701.863281 704.195312 711.648438 678.410156 C 711.648438 678.410156 709.871094 740.867188 708.535156 751.539062 L 707.203125 762.207031 C 707.203125 762.207031 716.542969 749.980469 723.882812 690.191406 C 723.882812 690.191406 727.882812 717.085938 724.105469 732.644531 C 724.105469 732.644531 737.003906 692.859375 736.335938 639.292969 C 736.335938 639.292969 745.675781 670.410156 742.339844 719.53125 C 739.003906 768.652344 737.003906 771.320312 737.003906 771.320312 C 737.003906 771.320312 747.453125 755.761719 757.460938 725.53125 C 767.46875 695.304688 768.359375 688.191406 768.359375 688.191406 C 768.359375 688.191406 767.246094 741.980469 749.679688 775.765625 C 749.679688 775.765625 771.027344 756.871094 780.367188 704.640625 C 780.367188 704.640625 782.8125 722.644531 778.8125 739.757812 C 778.8125 739.757812 793.265625 728.644531 799.046875 677.96875 C 799.046875 677.96875 815.28125 730.199219 777.253906 784.878906 C 777.253906 784.878906 813.949219 768.207031 821.730469 711.308594 C 821.730469 711.308594 828.847656 758.207031 797.046875 791.769531 C 797.046875 791.769531 813.726562 790.210938 837.742188 750.425781 C 837.742188 750.425781 838.730469 766.535156 814.394531 792.210938 C 814.394531 792.210938 846.195312 776.875 855.757812 724.199219 C 855.757812 724.199219 857.535156 776.652344 818.839844 801.992188 C 818.839844 801.992188 848.640625 808.214844 867.765625 753.539062 C 867.765625 753.539062 868.210938 803.769531 827.957031 812.660156 C 827.957031 812.660156 864.898438 820.914062 892.128906 794.003906 Z M 892.128906 794.003906 "/></g></g></svg>